<?xml version="1.0" encoding="utf-8"?>
<!-- Generator: Adobe Illustrator 22.1.0, SVG Export Plug-In . SVG Version: 6.00 Build 0)  -->
<svg version="1.1" id="Capa_1" xmlns="http://www.w3.org/2000/svg" xmlns:xlink="http://www.w3.org/1999/xlink" x="0px" y="0px"
	 viewBox="0 0 437.4 437.4" style="enable-background:new 0 0 437.4 437.4;" xml:space="preserve">
<style type="text/css">
	.st0{fill:none;stroke:#000000;stroke-width:10;stroke-linecap:round;stroke-linejoin:round;stroke-miterlimit:10;}
	.st1{fill:none;stroke:#000000;stroke-linecap:round;stroke-linejoin:round;stroke-miterlimit:10;}
</style>
<path d="M201.9,363.9"/>
<path d="M230.7,106.8"/>
<rect x="105.6" y="237.7" class="st0" width="110.6" height="12.8"/>
<rect x="105.4" y="261.8" class="st0" width="73.3" height="81.8"/>
<polygon class="st0" points="102.5,343.5 235.4,343.5 235.4,211.1 87.5,211.1 87.5,343.5 "/>
<polyline class="st0" points="235.4,343.5 342.4,246.5 342.1,177.7 "/>
<line class="st0" x1="277" y1="173.9" x2="235.4" y2="211.1"/>
<polyline class="st0" points="88,211.1 197.9,115.8 253.7,115.9 "/>
<path class="st0" d="M359.4,106.8"/>
<polyline class="st1" points="323,185.8 323,264 300.9,284 300.9,185.8 "/>
<polygon class="st1" points="279.2,303.7 257.1,322.2 257.1,192.5 279.2,173.2 "/>
<path class="st0" d="M323,133.5"/>
<circle class="st0" cx="312.4" cy="127.1" r="58.6"/>
<line class="st0" x1="282.4" y1="127.1" x2="342.4" y2="127.1"/>
<line class="st0" x1="312.4" y1="157.1" x2="312.4" y2="97.1"/>
</svg>
