<?xml version="1.0" encoding="utf-8"?>
<!-- Generator: Adobe Illustrator 22.1.0, SVG Export Plug-In . SVG Version: 6.00 Build 0)  -->
<svg version="1.1" id="Layer_1" xmlns="http://www.w3.org/2000/svg" xmlns:xlink="http://www.w3.org/1999/xlink" x="0px" y="0px"
	 viewBox="0 0 242.1 242.1" style="enable-background:new 0 0 242.1 242.1;" xml:space="preserve">
<style type="text/css">
	.st0{fill:none;stroke:#000000;stroke-width:7;stroke-miterlimit:10;}
</style>
<g>
	<path class="st0" d="M137.9,67.8l12.9-11.1l-15.4-13c0,0,33.3,0,56.5,34.8s7,68.6,7,68.6l7.7,4.7l-31.3,11.7l-5.5-32.8l8.7,4.7
		c0,0,7.7-21.6-4.7-42S143.4,68.8,137.9,67.8z"/>
</g>
<g>
	<path class="st0" d="M162.5,163.9l2.5,16.9l19.2-7.2c0,0-20.4,32.4-61.2,32.4s-57.5-28-58.4-28.2s-8.2,4-8.2,4l5.5-33.3l30.8,11.7
		l-8.5,5.5c0,0,14.9,15.2,33.1,16.9C135.4,184.3,152.6,175,162.5,163.9z"/>
</g>
<g>
	<path class="st0" d="M68.5,137.4l-15.4-5.7l-3.7,20.1c0,0-17.7-32.3,3-69.1s53.5-37.8,53.5-37.8v-9.8l25.9,21.5L106.6,78l-0.7-9.2
		c0,0-18.2,1.7-32.1,22.4S68.5,137.4,68.5,137.4z"/>
</g>
</svg>
