<?xml version="1.0" encoding="utf-8"?>
<!-- Generator: Adobe Illustrator 22.1.0, SVG Export Plug-In . SVG Version: 6.00 Build 0)  -->
<svg version="1.1" id="Layer_1" xmlns="http://www.w3.org/2000/svg" xmlns:xlink="http://www.w3.org/1999/xlink" x="0px" y="0px"
	 viewBox="0 0 242.1 242.1" style="enable-background:new 0 0 242.1 242.1;" xml:space="preserve">
<style type="text/css">
	.st0{fill:none;stroke:#000000;stroke-width:3.5;stroke-linecap:round;stroke-linejoin:round;stroke-miterlimit:10;}
	.st1{fill-rule:evenodd;clip-rule:evenodd;stroke:#000000;stroke-width:3.5;stroke-miterlimit:10;}
</style>
<line class="st0" x1="33.6" y1="154.5" x2="33.6" y2="165.9"/>
<line class="st0" x1="42.6" y1="157" x2="42.6" y2="168.4"/>
<path class="st0" d="M61.3,109.2c-2.1-0.8-4.1-1.5-6-3c-1.7-1.3-3.3-3.1-3.3-5c-0.1-1.9,1.4-3.8,3-5.2c1.7-1.5,3.4-2.5,5-3.9
	c0.8-0.7,1.5-1.4,2.2-2.2c3.6-4,6.5-8.6,9.9-12.7c4.2-4.9,9.4-9.1,14.9-12.7c5.1-3.3,10.6-6.1,16.3-8c5.3-1.8,10.8-2.9,16.3-4.1
	c1.7-0.4,3.5-0.8,5.2-1.1c1.6-0.3,3.1-0.4,4.7-0.6c11.5-0.7,22.6,2.9,33.9,6.6c7.9,2.6,15.8,5.2,22.1,9.6c3.9,2.8,7.2,6.3,11.9,9.4
	c1.9,1.3,4.1,2.5,4.4,4.4c0.2,1.1-0.2,2.4-0.8,3.3c-1.1,1.6-3.2,2.1-5,3c-2,1-3.6,2.6-5.2,4.1c-4,3.9-7.7,7.9-11.9,11.6
	c-5.7,5-12.1,9.4-18.7,13c-4.5,2.4-9.2,4.5-14.1,6.3c-3,1.1-6,2.1-8.5,3.9c-1.5,1-2.8,2.3-3.9,3.9c-0.8,1.2-1.4,2.4-2.5,3.3
	c-1.9,1.5-5,1.7-7.2,0.6c-1.7-0.9-2.7-2.7-4.1-3.9c-1-0.9-2.3-1.5-3.6-1.9c-3.6-1.3-7.3-1.7-11-2.2c-7.6-1.1-15.1-2.7-22.3-5.2
	c-6.2-2.1-12.2-4.9-17.6-8.5C63.9,111.1,62.6,110.2,61.3,109.2z"/>
<path class="st0" d="M63,110.5c-1.2,2.2-2.6,4.3-4.5,5.9c-1.5,1.3-3.3,2.3-4.7,4c-0.9,1.1-1.6,2.5-1.6,3.8c0,2,1.6,4.1,3.5,5.1
	c1.6,0.9,3.4,1,4.9,1.7c1.9,0.8,3.5,2.5,5.2,3.8c4.1,3.2,9.1,4.6,14,6.2c4.9,1.6,9.7,3.2,14.5,4.2c5.4,1.1,10.8,1.5,16.5,2.7
	c3.2,0.6,6.5,1.5,8.6,3.7c1.4,1.3,2.3,3.2,4,4.4c2,1.4,5.1,1.9,6.9,0.7c1.3-0.8,1.9-2.5,3-3.8c0.8-1,1.9-1.8,3-2.5
	c4.3-2.8,9.4-4.3,14.1-6.4c7-3.1,13.4-7.5,19.8-11.9c5.5-3.7,11-7.4,15.4-12.6c2.5-2.9,4.6-6.2,7.5-8.2c1.6-1.1,3.5-1.8,5.5-2.8
	c1.3-0.6,2.6-1.4,3.1-2.4c0.8-1.7-0.8-4.2-2.5-6.1c-2.1-2.3-4.4-3.5-6.6-4.9c-1.2-0.7-2.3-1.5-3.5-2.3"/>
<path class="st0" d="M63,132.2c-1.3,1.3-2.6,2.6-4.1,3.8c-2,1.6-4.2,2.9-5.6,5.1c-0.8,1.2-1.3,2.6-1.1,3.8c0.3,1.7,1.9,3.1,3.5,4.1
	c1.7,1,3.3,1.5,4.9,2.3c3.6,1.7,6.7,4.6,10.2,6.6c5.1,3,11.1,4.2,16.8,5.8c5.6,1.5,10.9,3.4,16.8,4.1c4.7,0.6,9.7,0.4,13.4,2.8
	c1.6,1,2.9,2.5,4.4,4c1.3,1.3,2.6,2.5,4.4,3c1.8,0.5,4.1,0.2,5.4-1c1.4-1.3,1.7-3.7,3-5.1c1.2-1.4,3.4-1.7,5.4-2.4
	c2.3-0.8,4.2-2.1,6.2-3.2c4.5-2.6,9.6-4.4,14.3-6.9c6.6-3.5,12.5-8.3,18.5-12.8c4.1-3.1,8.2-6.1,11.4-10.4c1.4-1.9,2.7-4,4.7-4.9
	c1.5-0.7,3.5-0.7,4.9-1.7c1.4-1,2.4-3,2.3-4.7c-0.2-2.8-3.2-4.7-5.9-6.5c-2.2-1.4-4.1-2.8-6-4.1"/>
<path class="st1" d="M189.5,159.3v-11.4l-7.3,8.7V168L189.5,159.3z M155.5,199.9l7.1-8.4v-11.4l-7.1,8.4l-10.4-2.9V197L155.5,199.9z
	 M102.1,185v-11.4L90,170.2v11.4L102.1,185z M42.6,168.4V157l-9-2.5v11.4L42.6,168.4z"/>
<polyline class="st0" points="208.5,125.2 155.5,188.5 33.6,154.5 54.8,128.5 "/>
<line class="st0" x1="208.5" y1="125.2" x2="202.3" y2="123.6"/>
<line class="st0" x1="208.5" y1="125.2" x2="208.5" y2="136.6"/>
<polyline class="st0" points="33.6,165.9 155.5,199.9 208.5,136.6 "/>
<line class="st0" x1="145.1" y1="185.6" x2="145.1" y2="197"/>
<line class="st0" x1="162.5" y1="180.1" x2="162.5" y2="191.5"/>
<line class="st0" x1="203.8" y1="130.8" x2="203.8" y2="142.2"/>
<line class="st0" x1="189.5" y1="147.9" x2="189.5" y2="159.3"/>
<line class="st0" x1="182.2" y1="156.6" x2="182.2" y2="168"/>
<line class="st0" x1="102.1" y1="173.6" x2="102.1" y2="185"/>
<line class="st0" x1="90" y1="170.2" x2="90" y2="181.6"/>
<line class="st0" x1="102.1" y1="185" x2="110.3" y2="175.9"/>
<line class="st0" x1="42.6" y1="168.4" x2="49.8" y2="159"/>
<line class="st0" x1="182.2" y1="168" x2="174.4" y2="166"/>
<line class="st0" x1="203.8" y1="142.2" x2="195.4" y2="140.8"/>
<polygon class="st1" points="208.5,136.6 208.5,125.2 203.8,130.8 203.8,142.2 "/>
<path class="st0" d="M136.6,113.7"/>
<path class="st0" d="M134.6,106.8c0,0-4.3,10-21.8,5.5"/>
<path class="st0" d="M161.8,82.6c0,0,5.5,2.3,10.2-0.8"/>
<path class="st0" d="M77.7,91c0,0,5.3,11.1,12.3,4.4"/>
</svg>
