<?xml version="1.0" encoding="utf-8"?>
<!-- Generator: Adobe Illustrator 22.1.0, SVG Export Plug-In . SVG Version: 6.00 Build 0)  -->
<svg version="1.1" id="Layer_1" xmlns="http://www.w3.org/2000/svg" xmlns:xlink="http://www.w3.org/1999/xlink" x="0px" y="0px"
	 viewBox="0 0 115.3 115.3" style="enable-background:new 0 0 115.3 115.3;" xml:space="preserve">
<g>
	<g>
		<g>
			<path d="M35.3,41.4c-0.1,0-0.3,0-0.4-0.1l-3.4-1c-0.8-0.2-1.3-1.1-1.1-1.9c0.2-0.8,1.1-1.3,1.9-1.1l3.4,1
				c0.8,0.2,1.3,1.1,1.1,1.9C36.6,41,36,41.4,35.3,41.4z"/>
		</g>
		<g>
			<path d="M10.2,56.7c-0.1,0-0.3,0-0.4-0.1l-3.4-1c-0.8-0.2-1.3-1.1-1.1-1.9c0.2-0.7,1.1-1.1,1.9-0.9l3.4,1
				c0.8,0.2,1.3,1.1,1.1,1.9C11.5,56.3,10.8,56.7,10.2,56.7z"/>
		</g>
		<g>
			<path d="M8.5,56c-0.5,0-1-0.3-1.3-0.7c-0.4-0.7-0.2-1.7,0.5-2.1l24.8-15c0.7-0.4,1.7-0.2,2.1,0.5c0.4,0.7,0.2,1.7-0.5,2.1
				l-24.8,15C9,56,8.7,56,8.5,56z"/>
		</g>
	</g>
	<path d="M33.3,43c0,0-0.2,0.5,0.1,1c0.3,0.6,0.7,0.6,0.7,0.6l70.6,9.7c0,0,0.1,0,0.1,0.1c-0.1,1.4-2.1,26.5-2,26.6
		c0.1,0.2-87.1-23.6-87.1-23.6s-1.4-0.5-1.9-2.7l19.6-11.8"/>
	<g>
		<path d="M106.3,85.1L106.3,85.1c-0.9,0-1.6-0.8-1.5-1.7l2.2-31.1c0.1-0.7,0.6-1.4,1.3-1.5c1-0.1,1.8,0.7,1.7,1.6l-2.2,31.3
			C107.8,84.5,107.1,85.1,106.3,85.1z"/>
	</g>
</g>
</svg>
