<?xml version="1.0" encoding="utf-8"?>
<!-- Generator: Adobe Illustrator 22.1.0, SVG Export Plug-In . SVG Version: 6.00 Build 0)  -->
<svg version="1.1" id="Capa_1" xmlns="http://www.w3.org/2000/svg" xmlns:xlink="http://www.w3.org/1999/xlink" x="0px" y="0px"
	 viewBox="0 0 820 820" style="enable-background:new 0 0 820 820;" xml:space="preserve">
<g>
	<g>
		<g>
			<path d="M642,234c4.4,0,8-3.6,8-8v-48c0-4.4-3.6-8-8-8H178c-4.4,0-8,3.6-8,8v48c0,4.4,3.6,8,8,8h16v400h-16c-4.4,0-8,3.6-8,8
				s3.6,8,8,8h464c4.4,0,8-3.6,8-8s-3.6-8-8-8h-16V234H642z M578,634H242v-48h336V634z M578,570H242v-48h336V570z M578,506H242v-48
				h336V506z M578,442H242v-48h336V442z M578,378H242v-48h336V378z M578,314H242v-48h336V314z M610,634h-16V258c0-4.4-3.6-8-8-8H234
				c-4.4,0-8,3.6-8,8v376h-16V234h400V634z M186,218v-32h448v32H186z"/>
			<path d="M386,626h48c4.4,0,8-3.6,8-8s-3.6-8-8-8h-48c-4.4,0-8,3.6-8,8S381.6,626,386,626z"/>
		</g>
	</g>
</g>
</svg>
