<?xml version="1.0" encoding="utf-8"?>
<!-- Generator: Adobe Illustrator 22.1.0, SVG Export Plug-In . SVG Version: 6.00 Build 0)  -->
<svg version="1.1" xmlns="http://www.w3.org/2000/svg" xmlns:xlink="http://www.w3.org/1999/xlink" x="0px" y="0px"
	 viewBox="0 0 261 261" style="enable-background:new 0 0 261 261;" xml:space="preserve">
<style type="text/css">
	.st0{display:none;}
	.st1{display:inline;fill:none;stroke:#000000;stroke-width:3;stroke-miterlimit:10;}
	.st2{display:inline;}
	.st3{fill:none;stroke:#000000;stroke-width:3;stroke-miterlimit:10;}
	.st4{display:inline;fill:none;stroke:#000000;stroke-width:2;stroke-miterlimit:10;}
	.st5{display:inline;fill:none;stroke:#000000;stroke-width:0.5;stroke-miterlimit:10;}
	.st6{display:inline;fill:none;stroke:#000000;stroke-width:5;stroke-miterlimit:10;}
	.st7{fill:none;stroke:#000000;stroke-width:5;stroke-miterlimit:10;}
	.st8{fill:none;stroke:#000000;stroke-width:2;stroke-miterlimit:10;}
	.st9{fill:none;stroke:#000000;stroke-width:6;stroke-miterlimit:10;}
</style>
<g id="Layer_1" class="st0">
	
		<image style="display:inline;overflow:visible;" width="122" height="126" xlink:href="6F782386.png"  transform="matrix(1.444 0 0 1.5992 84.5 -34.5492)">
	</image>
	<path class="st1" d="M51.2,146.6H-84.6c-5.7,0-10.3-4.6-10.3-10.3V-16.3c0-5.7,4.6-10.3,10.3-10.3H51.2c5.7,0,10.3,4.6,10.3,10.3
		v152.6C61.5,142,56.9,146.6,51.2,146.6z"/>
	<path class="st1" d="M40.5,131.9H-75.1c-4.2,0-7.6-3.4-7.6-7.6V-3.5c0-4.2,3.4-7.6,7.6-7.6H40.5c4.2,0,7.6,3.4,7.6,7.6v127.8
		C48.1,128.5,44.7,131.9,40.5,131.9z"/>
	<g class="st2">
		<g>
			<path class="st3" d="M39.8,116.8L9.8,60l1-0.6c0,0,0,0,0,0l0.1-0.1c0.1-0.1,0.3-0.2,0.6-0.4l0.4-0.2c0,0,0,0,0,0
				c0.6-0.4,1.5-0.9,3-1.8c-1.3-12.9,1.9-14.1,18-16.6c-10.8-8.3-20.1-3.6-20.1-3.6l-7.2,4.2l-4.4,2.7l-10.2,6.2
				c-1.7,1-2.2,3.2-1.2,4.8l1.7,2.8c-0.8,1.3-2.1,2.8-4.5,3.4l-2.3-4.6c-0.8-1.5-2.6-2.1-4.1-1.3l-4.9,2.5c-1.5,0.8-2.1,2.6-1.3,4.1
				l7.4,14.6c0.8,1.5,2.6,2.1,4.1,1.3l4.9-2.5c1.5-0.8,2.1-2.6,1.3-4.1l-2.2-4.3c0.9-1.3,2.5-2.7,5.3-2.9l0.5,0.9
				c1,1.7,3.1,2.2,4.8,1.2l1-0.6L31,121.6c0.6,1.1,2,1.6,3.1,0.9l4.7-2.5C40,119.4,40.4,118,39.8,116.8z"/>
		</g>
		<path class="st3" d="M28.7,117.2c0,0,3.4-4.4,9-4.3"/>
	</g>
	<polyline class="st4" points="-17.6,86.7 -20.4,107.5 -25.9,97.1 -34.8,127 	"/>
	<polyline class="st4" points="-34,76.6 -48.3,56.8 -48.3,66.7 -63,47.2 	"/>
	<polyline class="st4" points="-34,84.1 -55.6,93.1 -44.8,95.2 -65.2,115 	"/>
	<polyline class="st4" points="-26.2,51.1 -35.2,37.1 -26.2,40.8 -38,23.7 	"/>
	<line class="st5" x1="-58.4" y1="33.1" x2="-35.3" y2="57.9"/>
	<line class="st5" x1="-13.3" y1="89.4" x2="-0.1" y2="113.3"/>
	<line class="st5" x1="-38" y1="81.4" x2="-65.2" y2="80"/>
	<line class="st5" x1="-28.9" y1="86.7" x2="-41" y2="113.3"/>
	<line class="st6" x1="-82.7" y1="19.7" x2="48.1" y2="19.7"/>
</g>
<g id="Layer_2">
	<path class="st7" d="M206.7,219.1H54.3c-5.7,0-10.3-4.6-10.3-10.3V56.1c0-5.7,4.6-10.3,10.3-10.3h152.4c5.7,0,10.3,4.6,10.3,10.3
		v152.6C217,214.4,212.4,219.1,206.7,219.1z"/>
	<path class="st7" d="M189.3,204.3H63.8c-4.2,0-7.6-3.4-7.6-7.6V69c0-4.2,3.4-7.6,7.6-7.6h125.5c4.2,0,14.3,3.4,14.3,7.6v127.8
		C203.6,201,193.4,204.3,189.3,204.3z"/>
	<g>
		<g>
			<path class="st7" d="M188.5,189.3l-30-56.8l1-0.6c0,0,0,0,0,0l0.1-0.1c0.1-0.1,0.3-0.2,0.6-0.4l0.4-0.2c0,0,0,0,0,0
				c0.6-0.4,1.5-0.9,3-1.8c-1.3-12.9,1.9-14.1,18-16.6c-10.8-8.3-20.1-3.6-20.1-3.6l-7.2,4.2l-4.4,2.7l-10.2,6.2
				c-1.7,1-2.2,3.2-1.2,4.8l1.7,2.8c-0.8,1.3-2.1,2.8-4.5,3.4l-2.3-4.6c-0.8-1.5-2.6-2.1-4.1-1.3l-4.9,2.5c-1.5,0.8-2.1,2.6-1.3,4.1
				l7.4,14.6c0.8,1.5,2.6,2.1,4.1,1.3l4.9-2.5c1.5-0.8,2.1-2.6,1.3-4.1l-2.2-4.3c0.9-1.3,2.5-2.7,5.3-2.9l0.5,0.9
				c1,1.7,3.1,2.2,4.8,1.2l1-0.6l29.8,56.4c0.6,1.1,2,1.6,3.1,0.9l4.7-2.5C188.7,191.8,189.1,190.4,188.5,189.3z"/>
		</g>
		<path class="st3" d="M177.5,189.6c0,0,3.4-4.4,9-4.3"/>
	</g>
	<polyline class="st7" points="131.1,159.2 128.4,179.9 122.8,169.6 114,199.5 	"/>
	<polyline class="st7" points="114.8,149.1 100.5,129.3 100.5,139.2 85.7,119.7 	"/>
	<polyline class="st7" points="114.8,156.5 93.2,165.5 104,167.6 83.5,187.5 	"/>
	<polyline class="st7" points="122.6,123.6 113.5,109.5 122.6,113.3 110.8,96.1 	"/>
	<line class="st8" x1="90.4" y1="105.6" x2="113.5" y2="130.4"/>
	<line class="st8" x1="135.4" y1="161.8" x2="148.6" y2="185.8"/>
	<line class="st8" x1="110.8" y1="153.9" x2="83.5" y2="152.4"/>
	<line class="st8" x1="119.8" y1="159.2" x2="107.7" y2="185.8"/>
	<line class="st9" x1="56.2" y1="87.2" x2="203.6" y2="87.2"/>
</g>
</svg>
