<?xml version="1.0" encoding="utf-8"?>
<!-- Generator: Adobe Illustrator 22.1.0, SVG Export Plug-In . SVG Version: 6.00 Build 0)  -->
<svg version="1.1" id="Layer_1" xmlns="http://www.w3.org/2000/svg" xmlns:xlink="http://www.w3.org/1999/xlink" x="0px" y="0px"
	 viewBox="0 0 806.6 806.6" style="enable-background:new 0 0 806.6 806.6;" xml:space="preserve">
<g>
	<g>
		<path d="M719.2,379.4l-74.7-55.7c-2.9-3.4-6.5-6.1-10.6-7.9L406.3,146.1c-0.7-0.5-1.4-0.9-1.6-1c-0.9-0.6-1.7-1.1-2.6-1.5
			c-0.7-0.3-1.4-0.7-2.6-1.1c-0.9-0.3-1.8-0.6-2.5-0.8c-0.9-0.2-1.7-0.4-2.5-0.5c-0.9-0.2-1.8-0.3-3-0.4c-0.5,0-1-0.1-1.5-0.1h-1
			c-0.9,0-1.9,0.1-2.7,0.2c-0.8,0.1-1.6,0.2-2.5,0.4c-1,0.2-2,0.5-2.9,0.8c-0.7,0.2-1.4,0.5-2.5,1c-0.8,0.4-1.7,0.7-2.5,1.2
			c-0.8,0.4-1.5,0.9-2,1.2l-1.4,0.9l-64.7,52.9c-3.1-12.2-14.2-21.2-27.3-21.2h-64.4c-15.6,0-28.2,12.7-28.2,28.2v91.1l-101.5,83
			c-5.8,4.8-9.5,11.5-10.2,19c-0.8,7.5,1.5,14.8,6.2,20.7c5.4,6.6,13.3,10.4,21.9,10.4c6.5,0,12.8-2.3,17.8-6.4l28-22.9v242.5
			c0,15.6,12.7,28.2,28.2,28.2c15.6,0,28.2-12.7,28.2-28.2V354.8l183.8-150.2l204.2,152.2v286.6c0,15.6,12.7,28.2,28.2,28.2
			c15.6,0,28.2-12.7,28.2-28.2V398.9l34.5,25.7c4.9,3.7,10.7,5.6,16.8,5.6c8.9,0,17.3-4.2,22.6-11.3
			C734.2,406.4,731.6,388.7,719.2,379.4z M712,409.2c-2.4,3.2-6,4.9-9.7,4.9c-2.5,0-5-0.8-7.2-2.4l-60.3-44.9v276.6
			c0,6.7-5.4,12.1-12.1,12.1s-12.1-5.4-12.1-12.1V348.8L389.9,184.2l-199.5,163v296.2c0,6.7-5.4,12.1-12.1,12.1s-12.1-5.4-12.1-12.1
			V367l-54.3,44.4c-2.2,1.8-5,2.7-7.6,2.7c-3.5,0-7-1.5-9.4-4.4c-4.2-5.2-3.5-12.8,1.7-17L204,304.9v-98.7c0-6.7,5.4-12.1,12.1-12.1
			h64.4c6.7,0,12.1,5.4,12.1,12.1v26.3l89.3-73c0.2-0.2,0.5-0.3,0.8-0.5s0.7-0.5,1-0.7c0.4-0.2,0.8-0.4,1.1-0.5
			c0.3-0.1,0.7-0.3,1-0.4c0.4-0.1,0.8-0.2,1.3-0.3c0.3-0.1,0.7-0.2,1-0.2c0.4-0.1,0.8-0.1,1.2-0.1c0.4,0,0.7,0,1.1,0
			s0.8,0.1,1.2,0.2c0.4,0.1,0.7,0.1,1.1,0.2c0.4,0.1,0.8,0.3,1.2,0.4c0.3,0.1,0.7,0.3,1,0.4c0.4,0.2,0.8,0.5,1.2,0.7
			c0.2,0.1,0.5,0.2,0.7,0.4l229.3,171c2.9,0.8,5.3,2.7,6.9,5.1l76.6,57.1C714.9,396.3,716,403.9,712,409.2z"/>
		<path d="M228.2,285.1l40.2-32.9v-34h-40.2C228.2,218.2,228.2,285.1,228.2,285.1z"/>
	</g>
</g>
<g>
	<g>
		<path d="M330.7,499.2"/>
	</g>
</g>
<g>
	<g>
		<path d="M341.6,290.2c-58.5,0-106.2,47.6-106.2,106.2c0,58.5,47.6,106.2,106.2,106.2c58.5,0,106.2-47.6,106.2-106.2
			C447.7,337.9,400.1,290.2,341.6,290.2z M341.6,483.5c-48,0-87.1-39.1-87.1-87.1c0-48,39.1-87.1,87.1-87.1
			c48,0,87.1,39.1,87.1,87.1C428.7,444.4,389.6,483.5,341.6,483.5z"/>
		<path d="M311,351.5c-13.3,0-23.7,3.7-31.1,11.2c-7.4,7.4-11.2,17.8-11.2,31.2c0,9.6,1.9,17.5,5.6,23.9c3.8,6.4,8.7,11,14.7,14
			c6,2.9,13.7,4.4,22.9,4.4c9.1,0,16.7-1.7,22.7-5.1c6.1-3.4,10.7-8.2,14-14.3c3.2-6.1,4.8-14,4.8-23.5c0-13.2-3.7-23.4-11.1-30.7
			C335.1,355.2,324.6,351.5,311,351.5z M323.8,411.9c-3,3.5-7.2,5.3-12.6,5.3c-5.3,0-9.5-1.8-12.5-5.4c-3.1-3.6-4.6-9.5-4.6-17.8
			c0-8.3,1.5-14.3,4.6-17.9c3.1-3.6,7.2-5.4,12.3-5.4c5.3,0,9.5,1.8,12.6,5.3c3.1,3.6,4.7,9.2,4.7,16.9
			C328.2,402,326.7,408.4,323.8,411.9z"/>
		<path d="M381.4,419.9c1-0.8,3-2.6,6.1-4.7c5.1-3.6,8.6-7.1,10.5-10.1c1.9-3,2.9-6.2,2.9-9.5c0-3.1-0.8-6-2.5-8.4
			c-1.7-2.5-4-4.4-6.9-5.6c-3-1.2-7.1-1.8-12.4-1.8c-5.1,0-9,0.6-11.9,1.9c-2.9,1.3-5.1,3.1-6.7,5.5c-1.6,2.4-2.7,5.7-3.2,9.9
			l15.1,1.2c0.4-3.1,1.2-5.2,2.5-6.4c1.2-1.2,2.8-1.8,4.7-1.8c1.9,0,3.4,0.6,4.6,1.7c1.2,1.2,1.8,2.6,1.8,4.2c0,1.5-0.6,3.1-1.8,4.8
			c-1.2,1.7-4.1,4.2-8.5,7.4c-7.2,5.4-12.1,9.3-14.8,13.2c-2.6,3.9-4.2,11.9-4.7,11.9h41.2v-9.5h-19.6
			C379.1,423.8,380.3,420.7,381.4,419.9z"/>
	</g>
</g>
<path d="M499,487.5c-46.3,0-84,37.7-84,84c0,46.3,37.7,84,84,84c46.3,0,84-37.7,84-84C583,525.2,545.3,487.5,499,487.5z M499,640.4
	c-38,0-68.9-30.9-68.9-68.9c0-38,30.9-68.9,68.9-68.9c38,0,68.9,30.9,68.9,68.9C567.9,609.5,537,640.4,499,640.4z"/>
<path d="M530.5,590.1c0.8-0.7,2.4-2.1,4.8-3.8c4-2.8,6.8-5.6,8.3-8c1.5-2.4,2.3-4.9,2.3-7.5c0-2.5-0.7-4.7-2-6.7
	c-1.3-2-3.2-3.5-5.5-4.4c-2.3-1-5.6-1.5-9.8-1.5c-4,0-7.1,0.5-9.4,1.5c-2.3,1-4,2.4-5.3,4.3c-1.2,1.9-2.1,4.5-2.6,7.8l11.9,1
	c0.3-2.4,1-4.1,1.9-5.1c1-0.9,2.2-1.4,3.7-1.4c1.5,0,2.7,0.5,3.6,1.4c1,0.9,1.4,2,1.4,3.3c0,1.2-0.5,2.5-1.5,3.8
	c-1,1.3-3.2,3.3-6.7,5.9c-5.7,4.2-9.6,7.4-11.7,10.5c-2.1,3.1-3.3,9.4-3.7,9.4h32.6v-7.5h-15.5C528.7,593.2,529.7,590.7,530.5,590.1
	z"/>
<g>
	<g>
		<path d="M499.6,541.9c-4.1,0-7.4,3.3-7.4,7.4v26.6L460.4,544c-2.1-2.1-5.3-2.7-8.1-1.6c-2.8,1.1-4.6,3.9-4.6,6.8v44.4
			c0,4.1,3.3,7.4,7.4,7.4s7.4-3.3,7.4-7.4v-26.6l31.8,31.8c1.4,1.4,3.3,2.2,5.2,2.2c1,0,1.9-0.2,2.8-0.6c2.8-1.1,4.6-3.9,4.6-6.8
			v-44.4C507,545.2,503.7,541.9,499.6,541.9z"/>
	</g>
</g>
<circle cx="328.3" cy="616.8" r="16"/>
<circle cx="256.7" cy="557.4" r="7.9"/>
<circle cx="236.4" cy="499.2" r="13"/>
<circle cx="334.2" cy="544.3" r="5.1"/>
<circle cx="403.3" cy="531.8" r="10.1"/>
<circle cx="528.2" cy="436.1" r="30.7"/>
</svg>
