<?xml version="1.0" encoding="utf-8"?>
<!-- Generator: Adobe Illustrator 22.1.0, SVG Export Plug-In . SVG Version: 6.00 Build 0)  -->
<svg version="1.1" id="Capa_1" xmlns="http://www.w3.org/2000/svg" xmlns:xlink="http://www.w3.org/1999/xlink" x="0px" y="0px"
	 viewBox="0 0 36 36" style="enable-background:new 0 0 36 36;" xml:space="preserve">
<g>
	<g>
		<path d="M28,6.1H8c-1.4,0-2.5,1.1-2.5,2.5v20c0,1.4,1.1,2.5,2.5,2.5h20c1.4,0,2.5-1.1,2.5-2.5v-20C30.5,7.2,29.4,6.1,28,6.1z
			 M7.8,7.5c0.5,0,0.9,0.4,0.9,0.9S8.3,9.3,7.8,9.3S6.9,8.9,6.9,8.4S7.3,7.5,7.8,7.5z M7.8,29.7c-0.5,0-0.9-0.4-0.9-0.9
			s0.4-0.9,0.9-0.9s0.9,0.4,0.9,0.9S8.3,29.7,7.8,29.7z M28.2,29.7c-0.5,0-0.9-0.4-0.9-0.9s0.4-0.9,0.9-0.9s0.9,0.4,0.9,0.9
			S28.7,29.7,28.2,29.7z M29.1,22c0,0.7-0.4,1.6-0.9,2.1l-4.8,4.8c-0.5,0.5-1.4,0.9-2.1,0.9h-6.8c-0.7,0-1.6-0.4-2.1-0.9l-4.8-4.8
			c-0.5-0.5-0.9-1.4-0.9-2.1v-6.8c0-0.7,0.4-1.6,0.9-2.1l4.8-4.8c0.5-0.5,1.4-0.9,2.1-0.9h6.8c0.7,0,1.6,0.4,2.1,0.9l4.8,4.8
			c0.5,0.5,0.9,1.4,0.9,2.1L29.1,22L29.1,22z M28.2,9.3c-0.5,0-0.9-0.4-0.9-0.9c0-0.5,0.4-0.9,0.9-0.9s0.9,0.4,0.9,0.9
			C29.1,8.9,28.7,9.3,28.2,9.3z"/>
		<path d="M20.6,18.6c0-0.1,0-0.3,0-0.4c2.1-0.5,4.3-1.6,6.9-3.7c-0.1-0.1-0.1-0.2-0.2-0.3l-3.6-3.6c-1,2.9-2.3,4.8-3.8,6.3
			c-0.1-0.2-0.3-0.3-0.5-0.4c1.1-1.8,1.9-4,2.1-7.5c-0.1,0-0.1,0-0.2,0h-5.2c1.5,2.9,2,5.1,2,7.1c-0.1,0-0.1,0-0.2,0s-0.3,0-0.4,0
			c-0.5-2.1-1.6-4.3-3.7-6.9c-0.1,0.1-0.2,0.1-0.3,0.2L10,12.9c2.9,1,4.8,2.3,6.3,3.8c-0.2,0.1-0.3,0.3-0.4,0.5
			c-1.8-1.1-4-1.9-7.5-2.1c0,0.1,0,0.1,0,0.2v5.2c2.9-1.5,5.1-2,7.1-2c0,0.1,0,0.1,0,0.2s0,0.3,0,0.4c-2.1,0.5-4.3,1.6-6.9,3.7
			c0.1,0.1,0.1,0.2,0.2,0.3l3.5,3.5c1-2.9,2.3-4.8,3.8-6.3c0.1,0.2,0.3,0.3,0.5,0.4c-1.1,1.8-1.9,4-2.1,7.5c0.1,0,0.1,0,0.2,0h5.2
			c-1.5-2.9-2-5.1-2-7.1c0.1,0,0.1,0,0.2,0s0.3,0,0.4,0c0.5,2.1,1.6,4.3,3.7,6.9c0.1-0.1,0.2-0.1,0.3-0.2l3.5-3.5
			c-2.9-1-4.8-2.3-6.3-3.8c0.2-0.1,0.3-0.3,0.4-0.5c1.8,1.1,4,1.9,7.5,2.1c0-0.1,0-0.1,0-0.2v-5.2c-2.9,1.5-5.1,2-7.1,2
			C20.6,18.7,20.6,18.7,20.6,18.6z"/>
	</g>
</g>
</svg>
