<?xml version="1.0" encoding="utf-8"?>
<!-- Generator: Adobe Illustrator 22.1.0, SVG Export Plug-In . SVG Version: 6.00 Build 0)  -->
<svg version="1.1" id="Layer_1" xmlns="http://www.w3.org/2000/svg" xmlns:xlink="http://www.w3.org/1999/xlink" x="0px" y="0px"
	 viewBox="0 0 460 460" style="enable-background:new 0 0 460 460;" xml:space="preserve">
<g>
	<path d="M302.4,261.8c-4.5-2.1-10.6-3.1-18.1-3.1H278V145.4c0-17-7.4-25.5-22.3-25.5c-4.6,0-8.5,1.5-11.8,4.6s-7.4,8-12.5,14.9
		l-77.6,103.9c-2.1,2.8-4,5.2-5.4,7.2c-1.5,2-2.9,4-4.2,6.1c-1.4,2.1-2.4,4.1-3.1,6c-0.7,1.9-1,3.8-1,5.6c0,7.2,2.3,12.9,7,17.1
		c4.6,4.2,11.6,6.3,20.9,6.3h73.5v27.2c0,7.3,1.7,12.9,5.1,16.6c3.4,3.8,7.8,5.6,13.3,5.6c5.6,0,10-1.8,13.3-5.5s5-9.3,5-16.8v-27.2
		h8.9c7.4,0,13-1.3,16.7-3.9s5.6-6.7,5.6-12.4C309.2,268.4,306.9,263.9,302.4,261.8z M241.4,258.7h-63l63-85.1V258.7z"/>
</g>
</svg>
