<?xml version="1.0" encoding="utf-8"?>
<!-- Generator: Adobe Illustrator 22.1.0, SVG Export Plug-In . SVG Version: 6.00 Build 0)  -->
<svg version="1.1" id="Layer_1" xmlns="http://www.w3.org/2000/svg" xmlns:xlink="http://www.w3.org/1999/xlink" x="0px" y="0px"
	 viewBox="0 0 512 512" style="enable-background:new 0 0 512 512;" xml:space="preserve">
<g>
	<g>
		<path d="M0,0v512h512V0H0z M477.9,477.9H34.1V34.1h443.7L477.9,477.9L477.9,477.9z"/>
	</g>
</g>
<g>
	<g>
		<polygon points="164.3,188.4 91.7,188.4 91.7,222.6 222.6,222.6 222.6,91.7 188.4,91.7 188.4,164.3 92.4,68.3 68.3,92.4 		"/>
	</g>
</g>
<g>
	<g>
		<polygon points="68.3,419.6 92.4,443.7 188.4,347.7 188.4,420.3 222.6,420.3 222.6,289.4 91.7,289.4 91.7,323.6 164.3,323.6 		"/>
	</g>
</g>
<g>
	<g>
		<polygon points="323.6,420.3 323.6,347.7 419.6,443.7 443.7,419.6 347.7,323.6 420.3,323.6 420.3,289.4 289.4,289.4 289.4,420.3 
					"/>
	</g>
</g>
<g>
	<g>
		<polygon points="420.3,222.6 420.3,188.4 347.7,188.4 443.7,92.4 419.6,68.3 323.6,164.3 323.6,91.7 289.4,91.7 289.4,222.6 		"/>
	</g>
</g>
</svg>
