<?xml version="1.0" encoding="utf-8"?>
<!-- Generator: Adobe Illustrator 22.1.0, SVG Export Plug-In . SVG Version: 6.00 Build 0)  -->
<svg version="1.1" id="Capa_1" xmlns="http://www.w3.org/2000/svg" xmlns:xlink="http://www.w3.org/1999/xlink" x="0px" y="0px"
	 viewBox="0 0 679 679" style="enable-background:new 0 0 679 679;" xml:space="preserve">
<g>
	<g>
		<path d="M97.2,263.1l-2.1-151.3c-0.1-7.7,6.2-14,13.9-13.9l151.3,2.2c12.1,0.2,18.1,14.8,9.5,23.4l-42.1,42.1l70,70l-65,65l-70-70
			l-42.1,42.1C112.1,281.3,97.4,275.3,97.2,263.1z"/>
		<path d="M516.3,231.5l42.1,42.1c8.6,8.6,23.2,2.6,23.4-9.5l2.2-151.3c0.1-7.7-6.2-14-13.9-13.9l-151.3,2.2
			c-12.1,0.2-18.1,14.8-9.5,23.4l42,41.9l-70,70l65,65L516.3,231.5z"/>
		<path d="M409.2,555.4c-8.6,8.6-2.6,23.2,9.5,23.4L570,581c7.7,0.1,14-6.2,13.9-13.9l-2.2-151.3c-0.2-12.1-14.8-18.1-23.4-9.5
			l-42.1,42.1l-70-70l-65,65l70,70L409.2,555.4z"/>
		<path d="M109,580l151.3-2.2c12.1-0.2,18.1-14.8,9.5-23.4l-42.1-42l70-70l-65-65l-70,70l-42.1-42.1c-8.6-8.6-23.2-2.6-23.4,9.5
			L95,566.2C95,573.8,101.3,580.2,109,580z"/>
	</g>
</g>
</svg>
