<?xml version="1.0" encoding="utf-8"?>
<!-- Generator: Adobe Illustrator 22.1.0, SVG Export Plug-In . SVG Version: 6.00 Build 0)  -->
<svg version="1.1" id="Layer_1" xmlns="http://www.w3.org/2000/svg" xmlns:xlink="http://www.w3.org/1999/xlink" x="0px" y="0px"
	 viewBox="0 0 98.3 98.3" style="enable-background:new 0 0 98.3 98.3;" xml:space="preserve">
<style type="text/css">
	.st0{fill:none;stroke:#000000;stroke-width:0.5;stroke-linecap:round;stroke-linejoin:round;stroke-miterlimit:10;}
	.st1{fill:none;stroke:#000000;stroke-width:2;stroke-linecap:square;stroke-linejoin:round;stroke-miterlimit:10;}
	.st2{fill:none;stroke:#000000;stroke-width:2;stroke-linejoin:round;stroke-miterlimit:10;}
	.st3{fill:none;stroke:#000000;stroke-width:2;stroke-linecap:round;stroke-linejoin:round;stroke-miterlimit:10;}
	.st4{fill:none;stroke:#000000;stroke-width:4;stroke-linecap:round;stroke-linejoin:round;stroke-miterlimit:10;}
	.st5{fill:none;stroke:#FFFFFF;stroke-width:0.25;stroke-linecap:round;stroke-linejoin:round;stroke-miterlimit:10;}
	.st6{fill:none;stroke:#000000;stroke-width:0.1;stroke-linecap:round;stroke-linejoin:round;stroke-miterlimit:10;}
	.st7{fill:none;stroke:#000000;stroke-width:1.5;stroke-miterlimit:10;}
</style>
<line class="st0" x1="27.3" y1="44.3" x2="27.3" y2="41"/>
<line class="st1" x1="26.6" y1="77.8" x2="26.6" y2="44.3"/>
<line class="st0" x1="27.4" y1="83.6" x2="27.3" y2="77.8"/>
<polyline class="st0" points="27.3,41 76.3,41 76.4,83.6 27.4,83.6 "/>
<polyline class="st0" points="76.3,41 72.1,30.9 31.6,30.9 27.3,41 "/>
<polyline class="st2" points="27.3,48.3 19.3,48.3 19.3,77.8 27.3,77.8 "/>
<polyline class="st2" points="19.3,48.3 19.9,44.3 27.3,44.3 "/>
<path class="st3" d="M27.9,52.6"/>
<path class="st3" d="M27.9,59.3"/>
<path class="st4" d="M28.5,56.6"/>
<path class="st3" d="M27.9,66.3"/>
<path class="st3" d="M27.9,73.7"/>
<path class="st4" d="M28.6,70.8"/>
<path class="st5" d="M38.9,49.3"/>
<path class="st4" d="M28.4,74.2"/>
<path class="st6" d="M76.3,79"/>
<path class="st6" d="M27.5,79"/>
<path d="M19.4,81.4C19.4,81.4,19.2,81.2,19.4,81.4L19.4,81.4z"/>
<path d="M97.6,82.3C97.6,82.3,97.4,82.1,97.6,82.3L97.6,82.3z"/>
<path d="M49.3,29.5"/>
<path d="M49.3,29.5"/>
<path d="M44.3,27.8c-0.1-0.4-0.4-0.7-0.7-1.1c-0.1-0.2-0.3-0.3-0.5-0.5L43,25.9l-0.1-0.1l0,0c0,0,0,0,0.1,0.1l0,0l0,0
	c-0.2-0.2-0.6-0.6-0.7-0.7c-0.1-0.2-0.2-0.3-0.3-0.6c-0.2-0.4-0.4-1-0.5-1.5c-0.2-1-0.2-2.1-0.1-3.1c0.2-1.9,0.4-3.3,0.4-3.3
	s-1.2,1-2.2,2.9c-0.5,1-0.9,2.2-1,3.6c0,0.7,0,1.5,0.4,2.2c0.1,0.4,0.4,0.8,0.7,1.2c0.3,0.4,0.5,0.6,0.8,0.9"/>
<path d="M42.8,25.7L42.8,25.7L42.8,25.7z"/>
<path d="M51,29.8c0,0,1.3-1,2.3-2.9c0.2-0.5,0.5-1,0.7-1.6s0.3-1.3,0.3-2s-0.1-1.5-0.5-2.2c-0.1-0.4-0.4-0.7-0.7-1.1
	c-0.1-0.2-0.3-0.3-0.5-0.5l-0.2-0.2l-0.1-0.1l0,0c0,0,0,0,0.1,0.1l0,0l0,0c-0.2-0.2-0.6-0.6-0.7-0.7c-0.1-0.2-0.2-0.3-0.3-0.6
	c-0.2-0.4-0.4-1-0.5-1.5c-0.2-1-0.2-2.1-0.1-3.1c0-2,0.2-3.4,0.2-3.4"/>
<path d="M51,10c0,0-1.2,1-2.2,2.9c-0.5,1-0.9,2.2-1,3.6c0,0.7,0,1.5,0.4,2.2c0.1,0.4,0.4,0.8,0.7,1.2c0.3,0.4,0.5,0.6,0.8,0.9
	l0.7,0.6c0.1,0.2,0.3,0.4,0.4,0.6c0.2,0.5,0.5,0.9,0.5,1.5c0.2,1,0.2,2.1,0.1,3c-0.2,1.9-0.4,3.3-0.4,3.3"/>
<path d="M52.2,19C52.2,19.1,52.2,19,52.2,19L52.2,19z"/>
<path d="M64.9,27.1c-0.1-0.4-0.4-0.7-0.7-1.1c-0.1-0.2-0.3-0.3-0.5-0.5l-0.2-0.2l-0.1-0.1l0,0c0,0,0,0,0.1,0.1l0,0l0,0
	c-0.2-0.2-0.6-0.6-0.7-0.7c-0.1-0.2-0.2-0.3-0.3-0.6c-0.2-0.4-0.4-1-0.5-1.5c-0.2-1-0.2-2.1-0.1-3.1c0.2-1.9,0.4-3.3,0.4-3.3
	s-1.2,1-2.2,2.9c-0.5,1-0.9,2.2-1,3.6c0,0.7,0,1.5,0.4,2.2c0.1,0.4,0.4,0.8,0.7,1.2c0.3,0.4,0.5,0.6,0.8,0.9l0.7,0.6"/>
<path d="M63.4,25.1C63.4,25.1,63.3,25.1,63.4,25.1L63.4,25.1z"/>
<path class="st7" d="M67.5,51.7H26.5v-3.4h41.1c0.9,0,1.7,0.8,1.7,1.7v0C69.3,50.9,68.5,51.7,67.5,51.7z"/>
<path class="st7" d="M67.5,55.1l-41.1,0v-3.4h41.1c0.9,0,1.7,0.8,1.7,1.7v0C69.3,54.3,68.5,55.1,67.5,55.1z"/>
<path class="st7" d="M67.5,58.5H26.5v-3.4h41.1c0.9,0,1.7,0.8,1.7,1.7v0C69.3,57.7,68.5,58.5,67.5,58.5z"/>
<path class="st7" d="M67.5,61.9H26.5v-3.4h41.1c0.9,0,1.7,0.8,1.7,1.7v0C69.3,61.1,68.5,61.9,67.5,61.9z"/>
<path class="st7" d="M67.7,65.3H26.6v-3.4h41.1c0.9,0,1.7,0.8,1.7,1.7v0C69.4,64.6,68.6,65.3,67.7,65.3z"/>
<path class="st7" d="M67.7,68.7H26.6v-3.4h41.1c0.9,0,1.7,0.8,1.7,1.7l0,0C69.4,68,68.6,68.7,67.7,68.7z"/>
<path class="st7" d="M67.7,72.2H26.6v-3.4h41.1c0.9,0,1.7,0.8,1.7,1.7l0,0C69.4,71.4,68.6,72.2,67.7,72.2z"/>
<path class="st7" d="M67.7,75.6H26.6v-3.4h41.1c0.9,0,1.7,0.8,1.7,1.7v0C69.4,74.8,68.6,75.6,67.7,75.6z"/>
</svg>
