<?xml version="1.0" encoding="utf-8"?>
<!-- Generator: Adobe Illustrator 22.1.0, SVG Export Plug-In . SVG Version: 6.00 Build 0)  -->
<svg version="1.1" id="Layer_1" xmlns="http://www.w3.org/2000/svg" xmlns:xlink="http://www.w3.org/1999/xlink" x="0px" y="0px"
	 viewBox="0 0 98.3 98.3" style="enable-background:new 0 0 98.3 98.3;" xml:space="preserve">
<style type="text/css">
	.st0{fill:none;stroke:#000000;stroke-linecap:round;stroke-linejoin:round;stroke-miterlimit:10;}
	.st1{fill:none;stroke:#000000;stroke-width:2;stroke-linecap:round;stroke-linejoin:round;stroke-miterlimit:10;}
	.st2{fill:none;stroke:#000000;stroke-width:4;stroke-linecap:round;stroke-linejoin:round;stroke-miterlimit:10;}
	.st3{fill:none;stroke:#FFFFFF;stroke-width:0.25;stroke-linecap:round;stroke-linejoin:round;stroke-miterlimit:10;}
	.st4{fill:none;stroke:#000000;stroke-width:0.1;stroke-linecap:round;stroke-linejoin:round;stroke-miterlimit:10;}
	.st5{fill:none;stroke:#000000;stroke-width:0.5;stroke-linecap:round;stroke-linejoin:round;stroke-miterlimit:10;}
	.st6{fill:none;stroke:#000000;stroke-width:1.5;stroke-linecap:round;stroke-linejoin:round;stroke-miterlimit:10;}
</style>
<polyline class="st0" points="24.2,41.2 73.3,41.2 73.3,83.8 24.3,83.8 24.2,41.2 28.5,31.1 69,31.1 73.3,41.2 "/>
<path class="st1" d="M24.8,52.8"/>
<path class="st1" d="M24.8,59.5"/>
<path class="st2" d="M25.4,56.8"/>
<path class="st1" d="M24.8,66.5"/>
<path class="st1" d="M24.8,73.9"/>
<path class="st2" d="M25.5,71"/>
<path class="st3" d="M35.8,49.5"/>
<path class="st2" d="M25.3,74.4"/>
<path class="st4" d="M73.3,79.2"/>
<path class="st4" d="M24.4,79.2"/>
<path d="M97.6,82.3C97.6,82.3,97.4,82.1,97.6,82.3L97.6,82.3z"/>
<path d="M46.3,29.7"/>
<path d="M46.3,29.7"/>
<path d="M41.3,28c-0.1-0.4-0.4-0.7-0.7-1.1c-0.1-0.2-0.3-0.3-0.5-0.5L40,26.1L39.8,26l0,0c0,0,0,0,0.1,0.1l0,0l0,0
	c-0.2-0.2-0.6-0.6-0.7-0.7c-0.1-0.2-0.2-0.3-0.3-0.6c-0.2-0.4-0.4-1-0.5-1.5c-0.2-1-0.2-2.1-0.1-3.1c0.2-1.9,0.4-3.3,0.4-3.3
	s-1.2,1-2.2,2.9c-0.5,1-0.9,2.2-1,3.6c0,0.7,0,1.5,0.4,2.2c0.1,0.4,0.4,0.8,0.7,1.2c0.3,0.4,0.5,0.6,0.8,0.9"/>
<path d="M39.8,25.9L39.8,25.9L39.8,25.9z"/>
<path d="M47.9,30c0,0,1.3-1,2.3-2.9c0.2-0.5,0.5-1,0.7-1.6s0.3-1.3,0.3-2s-0.1-1.5-0.5-2.2c-0.1-0.4-0.4-0.7-0.7-1.1
	c-0.1-0.2-0.3-0.3-0.5-0.5l-0.2-0.2l-0.1-0.1l0,0c0,0,0,0,0.1,0.1l0,0l0,0c-0.2-0.2-0.6-0.6-0.7-0.7c-0.1-0.2-0.2-0.3-0.3-0.6
	c-0.2-0.4-0.4-1-0.5-1.5c-0.2-1-0.2-2.1-0.1-3.1c0-2,0.2-3.4,0.2-3.4"/>
<path d="M47.9,10.2c0,0-1.2,1-2.2,2.9c-0.5,1-0.9,2.2-1,3.6c0,0.7,0,1.5,0.4,2.2c0.1,0.4,0.4,0.8,0.7,1.2c0.3,0.4,0.5,0.6,0.8,0.9
	l0.7,0.6c0.1,0.2,0.3,0.4,0.4,0.6c0.2,0.5,0.5,0.9,0.5,1.5c0.2,1,0.2,2.1,0.1,3c-0.2,1.9-0.4,3.3-0.4,3.3"/>
<path d="M49.2,19.2C49.2,19.3,49.2,19.2,49.2,19.2L49.2,19.2z"/>
<path d="M61.8,27.3c-0.1-0.4-0.4-0.7-0.7-1.1c-0.1-0.2-0.3-0.3-0.5-0.5l-0.2-0.2l-0.1-0.1l0,0c0,0,0,0,0.1,0.1l0,0l0,0
	c-0.2-0.2-0.6-0.6-0.7-0.7c-0.1-0.2-0.2-0.3-0.3-0.6c-0.2-0.4-0.4-1-0.5-1.5c-0.2-1-0.2-2.1-0.1-3.1c0.2-1.9,0.4-3.3,0.4-3.3
	s-1.2,1-2.2,2.9c-0.5,1-0.9,2.2-1,3.6c0,0.7,0,1.5,0.4,2.2c0.1,0.4,0.4,0.8,0.7,1.2c0.3,0.4,0.5,0.6,0.8,0.9l0.7,0.6"/>
<path d="M60.3,25.3L60.3,25.3L60.3,25.3z"/>
<path class="st5" d="M73.3,83.8"/>
<path class="st5" d="M24.2,41.2"/>
<path class="st5" d="M24.3,83.8"/>
<path class="st5" d="M73.3,41.2"/>
<circle class="st6" cx="48.8" cy="62.5" r="17.8"/>
<path class="st3" d="M37,50.6"/>
<path class="st5" d="M34.9,51.4"/>
<path class="st5" d="M34.9,71.7"/>
<path class="st5" d="M36.9,52.5"/>
<path class="st5" d="M36.9,72.8"/>
<path class="st5" d="M56.9,52.9"/>
<path class="st5" d="M56.9,73.3"/>
<path class="st0" d="M33.8,81.4"/>
<path class="st0" d="M34.2,45.8"/>
<path class="st4" d="M33.8,80.5"/>
<path class="st4" d="M34.2,44.8"/>
<path class="st4" d="M48.8,81.9"/>
<circle class="st6" cx="48.8" cy="62.5" r="15.3"/>
<circle class="st6" cx="48.8" cy="62.5" r="12.2"/>
<circle class="st6" cx="48.8" cy="62.5" r="9.2"/>
<circle class="st6" cx="48.8" cy="62.5" r="6.3"/>
<circle class="st6" cx="48.8" cy="62.5" r="3.3"/>
<line class="st6" x1="48.8" y1="80.3" x2="48.8" y2="44.7"/>
<line class="st6" x1="31" y1="62.5" x2="66.6" y2="62.5"/>
<path class="st6" d="M0,0"/>
<path class="st6" d="M0,0"/>
</svg>
