<?xml version="1.0" encoding="utf-8"?>
<!-- Generator: Adobe Illustrator 22.1.0, SVG Export Plug-In . SVG Version: 6.00 Build 0)  -->
<svg version="1.1" id="Capa_1" xmlns="http://www.w3.org/2000/svg" xmlns:xlink="http://www.w3.org/1999/xlink" x="0px" y="0px"
	 viewBox="0 0 381.2 381.2" style="enable-background:new 0 0 381.2 381.2;" xml:space="preserve">
<style type="text/css">
	.st0{fill:#010002;}
</style>
<g>
	<g>
		<path class="st0" d="M193.6,110.9c-2.1-2.1-5.6-2.1-7.7,0.1l-92.2,93.4c-1,1-0.9,2.4-0.9,3.8v97.9c0,3,1.1,9.2,4.1,9.2h188.6
			c3,0,3.2-6.2,3.2-9.2v-97.9c0-1.5,0.5-2.9-0.5-3.9L193.6,110.9z M277.8,304.4h-52.1H154h-50.3v-94l85.7-88l88.3,88V304.4
			L277.8,304.4z"/>
		<path class="st0" d="M325.6,199.8L193.7,67.5c-1-1-2.5-1.5-3.9-1.6c-1.5,0-3.2,0.6-4.3,1.6l-49.2,49.7v-29c0-3-1.6-1.3-4.6-1.3
			H99.1c-3,0-6.2-1.6-6.2,1.4v73.2l-37.4,38.4c-2.1,2.1-1.9,5.6,0.3,7.7c2.1,2.1,5.7,2.1,7.8-0.1l39.3-40l0,0L189.8,79l128,128.5
			c1.1,1.1,2.5,1.6,3.9,1.6c1.4,0,2.8-0.5,3.8-1.6C327.7,205.4,327.7,202,325.6,199.8z M103.7,97.7h21.8v30.5l-21.8,22.1V97.7z"/>
	</g>
</g>
</svg>
