<?xml version="1.0" encoding="utf-8"?>
<!-- Generator: Adobe Illustrator 22.1.0, SVG Export Plug-In . SVG Version: 6.00 Build 0)  -->
<svg version="1.1" id="Capa_1" xmlns="http://www.w3.org/2000/svg" xmlns:xlink="http://www.w3.org/1999/xlink" x="0px" y="0px"
	 viewBox="0 0 437.4 437.4" style="enable-background:new 0 0 437.4 437.4;" xml:space="preserve">
<style type="text/css">
	.st0{fill:none;stroke:#000000;stroke-width:10;stroke-miterlimit:10;}
	.st1{fill:#FFFFFF;stroke:#000000;stroke-width:5;stroke-miterlimit:10;}
	.st2{font-family:'Verdana';}
	.st3{font-size:123.0506px;}
	.st4{fill:none;stroke:#000000;stroke-width:10;stroke-linecap:round;stroke-miterlimit:10;}
	.st5{fill:none;stroke:#000000;stroke-width:5;stroke-miterlimit:10;}
	.st6{fill:none;stroke:#000000;stroke-width:3;stroke-miterlimit:10;}
</style>
<path class="st0" d="M338.7,372.2H98.7V106.7c0-22.9,18.6-41.5,41.5-41.5h157.1c22.9,0,41.5,18.6,41.5,41.5V372.2z"/>
<circle class="st1" cx="218.7" cy="259.2" r="8.6"/>
<circle class="st1" cx="201" cy="281.2" r="8.6"/>
<circle class="st1" cx="235.7" cy="281.2" r="8.6"/>
<path class="st1" d="M218.7,294.5c-4.7,0-8.6,3.9-8.6,8.6c0,4.7,3.9,8.6,8.6,8.6s8.6-3.9,8.6-8.6
	C227.3,298.4,223.4,294.5,218.7,294.5"/>
<path class="st1" d="M183.4,294.5c-4.7,0-8.6,3.9-8.6,8.6c0,4.7,3.9,8.6,8.6,8.6s8.6-3.9,8.6-8.6C192,298.4,188.1,294.5,183.4,294.5
	"/>
<path class="st1" d="M252.3,294.5c-4.7,0-8.6,3.9-8.6,8.6c0,4.7,3.9,8.6,8.6,8.6s8.6-3.9,8.6-8.6C260.9,298.4,257,294.5,252.3,294.5
	"/>
<text transform="matrix(1 0 0 1 172.104 218.7)" class="st2 st3">H</text>
<line class="st4" x1="186.3" y1="91.5" x2="251.1" y2="91.5"/>
<path class="st1" d="M200.2,319.3c-5.4,0-9.6,4.9-8.4,10.5c0.7,3.3,3.3,5.9,6.6,6.6c5.6,1.2,10.5-3.1,10.5-8.4
	C208.8,323.1,204.9,319.3,200.2,319.3"/>
<path class="st1" d="M163.5,319.3c-5.4,0-9.6,4.9-8.4,10.5c0.7,3.3,3.3,5.9,6.6,6.6c5.6,1.2,10.5-3.1,10.5-8.4
	C172.1,323.1,168.3,319.3,163.5,319.3"/>
<path class="st1" d="M235.5,319.3c-5.4,0-9.6,4.9-8.4,10.5c0.7,3.3,3.3,5.9,6.6,6.6c5.6,1.2,10.5-3.1,10.5-8.4
	C244.1,323.1,240.2,319.3,235.5,319.3"/>
<path class="st1" d="M271.2,319.3c-5.4,0-9.6,4.9-8.4,10.5c0.7,3.3,3.3,5.9,6.6,6.6c5.6,1.2,10.5-3.1,10.5-8.4
	C279.8,323.1,276,319.3,271.2,319.3"/>
<path class="st5" d="M163.5,327.9"/>
<path class="st6" d="M218.7,259.2"/>
<path d="M218.7,372.2"/>
<path d="M218.7,65.2"/>
</svg>
