<?xml version="1.0" encoding="utf-8"?>
<!-- Generator: Adobe Illustrator 22.1.0, SVG Export Plug-In . SVG Version: 6.00 Build 0)  -->
<svg version="1.1" id="Capa_1" xmlns="http://www.w3.org/2000/svg" xmlns:xlink="http://www.w3.org/1999/xlink" x="0px" y="0px"
	 viewBox="0 0 304.5 304.5" style="enable-background:new 0 0 304.5 304.5;" xml:space="preserve">
<g>
	<path d="M266,181.1l-8.8,8l-104.9-86.4L47.6,188.9l-9.1-7.8L152.3,88l26,21.3V81.9H190v36.5l16.7,14.1v-65h11.5v74.4l16.9,13.9
		V50.1h11.2V165L266,181.1z"/>
</g>
<g>
	<g>
		<path d="M157.2,224l-7.6-1.7c-0.1-5.1-1.2-10-3.2-14.6l5.8-4.7c1.4-1.1,1.6-3.2,0.5-4.6l-7.3-9.1c-0.5-0.7-1.3-1.1-2.2-1.2
			c-0.9-0.1-1.7,0.2-2.4,0.7l-5.7,4.6l0,0c-4-3.1-8.6-5.3-13.5-6.5v-7.2c0-1.8-1.5-3.2-3.2-3.2h-11.6c-1.8,0-3.2,1.5-3.2,3.2v7.2
			c-5,1.3-9.6,3.5-13.7,6.7l-5.7-4.6c-0.7-0.5-1.5-0.8-2.4-0.7c-0.9,0.1-1.6,0.5-2.2,1.2l-7.3,9.1c-1.1,1.4-0.9,3.4,0.5,4.6l5.9,4.7
			l0,0c-2,4.6-3.1,9.5-3.1,14.6l-7.6,1.7c-1.7,0.4-2.8,2.1-2.4,3.9l2.6,11.4c0.4,1.7,2.1,2.8,3.9,2.4l7.8-1.8l0,0
			c2.3,4.3,5.4,8.1,9.2,11.3l-3.5,7.4c-0.8,1.6-0.1,3.6,1.5,4.3l10.5,5c0.4,0.2,0.9,0.3,1.4,0.3c0.4,0,0.7-0.1,1.1-0.2
			c0.8-0.3,1.5-0.9,1.8-1.7l3.6-7.5c4.7,0.9,9.7,0.9,14.4-0.1l3.6,7.4c0.8,1.6,2.7,2.3,4.3,1.5l10.5-5.1c1.6-0.8,2.3-2.7,1.5-4.3
			l-3.6-7.3c3.8-3.2,6.9-7,9.1-11.3l7.8,1.7c1.7,0.4,3.5-0.7,3.9-2.5l2.5-11.4c0.2-0.8,0-1.7-0.4-2.4
			C158.7,224.7,158,224.2,157.2,224z M126.9,222.9c0,7.9-6.4,14.3-14.3,14.3c-7.9,0-14.3-6.4-14.3-14.3s6.4-14.3,14.3-14.3
			C120.5,208.6,126.9,215,126.9,222.9z"/>
		<path d="M161.7,196.2c1.2,0,2.4-0.7,2.9-1.8l1.7-3.6c3,0.6,6.1,0.6,9,0l1.7,3.6c0.8,1.6,2.7,2.3,4.3,1.5l4.4-2.1
			c0.8-0.4,1.4-1,1.6-1.9c0.3-0.8,0.2-1.7-0.2-2.5l-1.7-3.5c2.4-2,4.3-4.4,5.7-7.1l3.7,0.8c1.7,0.4,3.5-0.7,3.9-2.5l1-4.7
			c0.4-1.7-0.7-3.5-2.5-3.9l-3.5-0.8c0-3.2-0.7-6.3-2-9.1l2.7-2.2c0.7-0.5,1.1-1.3,1.2-2.2c0.1-0.9-0.2-1.7-0.7-2.4l-3.1-3.8
			c-1.1-1.4-3.2-1.6-4.6-0.5l-2.6,2.1c-2.5-1.9-5.3-3.3-8.4-4.1v-3.3c0-1.8-1.5-3.2-3.2-3.2h-4.9c-1.8,0-3.2,1.5-3.2,3.2v3.3
			c-3.1,0.8-6,2.2-8.6,4.2l-2.6-2.1c-1.4-1.1-3.4-0.9-4.6,0.5l-3,3.8c-0.5,0.7-0.8,1.5-0.7,2.4c0.1,0.9,0.5,1.6,1.2,2.2l2.7,2.2
			c-1.3,2.9-1.9,6-1.9,9.1l-3.5,0.8c-0.8,0.2-1.6,0.7-2,1.4s-0.6,1.6-0.4,2.4l1.1,4.7c0.4,1.7,2.1,2.8,3.9,2.4l3.7-0.9
			c1.4,2.7,3.4,5.1,5.8,7l-1.7,3.5c-0.4,0.8-0.4,1.7-0.1,2.5c0.3,0.8,0.9,1.5,1.7,1.8l4.4,2.1C160.7,196.1,161.2,196.2,161.7,196.2z
			 M161.8,168.1c0-4.9,4-8.9,8.9-8.9c4.9,0,8.9,4,8.9,8.9c0,4.9-4,8.9-8.9,8.9C165.8,177,161.8,173,161.8,168.1z"/>
		<path d="M217.6,230.5l-3.5-0.8c0-3.2-0.7-6.3-2-9.1l2.7-2.2c0.7-0.5,1.1-1.3,1.2-2.2s-0.2-1.7-0.7-2.4l-3.1-3.8
			c-1.1-1.4-3.2-1.6-4.6-0.5l-2.6,2.1c-2.5-1.9-5.4-3.3-8.4-4.1v-3.3c0-1.8-1.5-3.2-3.2-3.2h-4.9c-1.8,0-3.2,1.5-3.2,3.2v3.3
			c-3.1,0.8-6,2.2-8.6,4.2h0l-2.6-2.1c-0.7-0.5-1.5-0.8-2.4-0.7c-0.9,0.1-1.6,0.5-2.2,1.2l-3,3.8c-1.1,1.4-0.9,3.4,0.5,4.6l2.7,2.2
			c-1.3,2.9-1.9,6-1.9,9.1l-3.5,0.8c-0.8,0.2-1.6,0.7-2,1.4c-0.5,0.7-0.6,1.6-0.4,2.4l1.1,4.7c0.4,1.7,2.2,2.8,3.9,2.4l3.7-0.9
			c1.4,2.7,3.4,5.1,5.8,7h0l-1.7,3.5c-0.4,0.8-0.4,1.7-0.1,2.5c0.3,0.8,0.9,1.5,1.7,1.8l4.4,2.1c0.4,0.2,0.9,0.3,1.4,0.3
			c1.2,0,2.4-0.7,2.9-1.8l1.7-3.6c3,0.6,6.1,0.6,9,0l1.7,3.6c0.8,1.6,2.7,2.3,4.3,1.5l4.4-2.1c0.8-0.4,1.4-1,1.6-1.9
			c0.3-0.8,0.2-1.7-0.2-2.5l-1.7-3.5c2.4-2,4.3-4.4,5.7-7.1l3.7,0.8c0.8,0.2,1.7,0,2.4-0.4c0.7-0.5,1.2-1.2,1.4-2l1-4.7
			C220.4,232.6,219.3,230.8,217.6,230.5z M199.8,230c0,4.9-4,8.9-8.9,8.9c-4.9,0-8.9-4-8.9-8.9s4-8.9,8.9-8.9
			C195.8,221.1,199.8,225.1,199.8,230z"/>
	</g>
</g>
</svg>
