<?xml version="1.0" encoding="utf-8"?>
<!-- Generator: Adobe Illustrator 22.1.0, SVG Export Plug-In . SVG Version: 6.00 Build 0)  -->
<svg version="1.1" id="Layer_1" xmlns="http://www.w3.org/2000/svg" xmlns:xlink="http://www.w3.org/1999/xlink" x="0px" y="0px"
	 viewBox="0 0 378 378" style="enable-background:new 0 0 378 378;" xml:space="preserve">
<g id="XMLID_2_">
	<path id="XMLID_4_" d="M159,84H99c-8.3,0-15,6.7-15,15v60c0,8.3,6.7,15,15,15h60c8.3,0,15-6.7,15-15V99C174,90.7,167.3,84,159,84z"
		/>
	<path id="XMLID_6_" d="M159,204H99c-8.3,0-15,6.7-15,15v60c0,8.3,6.7,15,15,15h60c8.3,0,15-6.7,15-15v-60
		C174,210.7,167.3,204,159,204z"/>
	<path id="XMLID_8_" d="M279,84h-60c-8.3,0-15,6.7-15,15v60c0,8.3,6.7,15,15,15h60c8.3,0,15-6.7,15-15V99C294,90.7,287.3,84,279,84z
		"/>
	<path id="XMLID_10_" d="M279,204h-60c-8.3,0-15,6.7-15,15v60c0,8.3,6.7,15,15,15h60c8.3,0,15-6.7,15-15v-60
		C294,210.7,287.3,204,279,204z"/>
</g>
</svg>
