<?xml version="1.0" encoding="utf-8"?>
<!-- Generator: Adobe Illustrator 22.1.0, SVG Export Plug-In . SVG Version: 6.00 Build 0)  -->
<svg version="1.1" id="Capa_1" xmlns="http://www.w3.org/2000/svg" xmlns:xlink="http://www.w3.org/1999/xlink" x="0px" y="0px"
	 viewBox="0 0 437.4 437.4" style="enable-background:new 0 0 437.4 437.4;" xml:space="preserve">
<style type="text/css">
	.st0{fill:#010002;}
	.st1{stroke:#000000;stroke-width:0.25;stroke-miterlimit:10;}
	.st2{fill:#010002;stroke:#FFFFFF;stroke-miterlimit:10;}
</style>
<g>
	<g>
		<path class="st0" d="M145.2,67.2l-55.6,45.1v259.1l217-1.2v-0.4l51.5-47.4V66.2l0.1-0.2C358.3,66,145.2,67.2,145.2,67.2z
			 M147.1,72.4l198-1.2l-41.9,39.9l-203.5,1.2L147.1,72.4z M301.5,365l-206.6,1.2V117.5l206.6-1.2V365L301.5,365z M303,111.1
			L303,111.1L345,71.2l0,0L303,111.1z M353.1,320.2l-46.4,42.8V114.9l46.4-44V320.2z"/>
	</g>
</g>
<path class="st1" d="M242.7,248.3h-36.9l24.7-40.2h-47.2l-29.5,69h31l-13.3,54.1L242.7,248.3z M169.7,265.4l19.8-45.8h21.9
	l-24.7,40.1h32.2l-27.5,31.9l6.5-26.3H169.7z"/>
<circle class="st0" cx="131.6" cy="152.5" r="18.3"/>
<circle class="st2" cx="131.6" cy="152.5" r="11.2"/>
<circle class="st0" cx="200.3" cy="152.5" r="18.6"/>
<circle class="st2" cx="200.3" cy="152.5" r="11.4"/>
<circle class="st0" cx="266.3" cy="152.5" r="18.9"/>
<circle class="st2" cx="266.3" cy="152.5" r="11.6"/>
</svg>
