<?xml version="1.0" encoding="utf-8"?>
<!-- Generator: Adobe Illustrator 22.1.0, SVG Export Plug-In . SVG Version: 6.00 Build 0)  -->
<svg version="1.1" id="Layer_1" xmlns="http://www.w3.org/2000/svg" xmlns:xlink="http://www.w3.org/1999/xlink" x="0px" y="0px"
	 viewBox="0 0 698 698" style="enable-background:new 0 0 698 698;" xml:space="preserve">
<style type="text/css">
	.st0{display:none;}
	.st1{display:inline;}
	.st2{fill:none;stroke:#000000;stroke-width:0.5;stroke-linecap:round;stroke-linejoin:round;}
	.st3{fill:none;}
</style>
<g id="Capa_1" class="st0">
	<g class="st1">
		<g>
			<g>
				<path d="M581,173c4.4,0,8-3.6,8-8v-48c0-4.4-3.6-8-8-8H117c-4.4,0-8,3.6-8,8v48c0,4.4,3.6,8,8,8h16v400h-16c-4.4,0-8,3.6-8,8
					s3.6,8,8,8h464c4.4,0,8-3.6,8-8s-3.6-8-8-8h-16V173H581z M517,573H181v-48h336V573z M517,509H181v-48h336V509z M517,445H181v-48
					h336V445z M517,381H181v-48h336V381z M517,317H181v-48h336V317z M517,253H181v-48h336V253z M549,573h-16V197c0-4.4-3.6-8-8-8
					H173c-4.4,0-8,3.6-8,8v376h-16V173h400V573z M125,157v-32h448v32H125z"/>
				<path d="M325,565h48c4.4,0,8-3.6,8-8s-3.6-8-8-8h-48c-4.4,0-8,3.6-8,8S320.6,565,325,565z"/>
			</g>
		</g>
	</g>
</g>
<g id="Layer_2_1_">
	<g>
		<g id="XMLID_1_">
			<g>
				<path d="M489.1,268v284.5h94.5c2.6,0,4.9-2.3,4.9-4.9V272.9c0-2.6-2.3-4.9-4.9-4.9H489.1z M489.1,258.3h94.5
					c8.1,0,14.7,6.7,14.7,14.7v274.8c0,8.1-6.7,14.7-14.7,14.7H469.4V454.5v-9.8V425v-9.8v-29.4v-9.8v-29.4v-9.8V317v-9.8v-29.4
					v-9.8v-29.4v-9.8v-49.1H489L489.1,258.3L489.1,258.3z"/>
				<rect x="233.9" y="444.7" width="235.5" height="9.8"/>
				<rect x="233.9" y="415.3" width="235.5" height="9.8"/>
				<rect x="233.9" y="376" width="235.5" height="9.8"/>
				<rect x="233.9" y="336.8" width="235.5" height="9.8"/>
				<path d="M469.4,307.3v9.8h-74.9c5.7-2.7,11-6,16-9.8H469.4z"/>
				<path d="M469.4,268v9.8h-32.7c1.8-3.2,3.5-6.5,4.9-9.8l0,0H469.4z"/>
				<path d="M469.4,228.8v9.8h-20.1l0,0c0.4-3.2,0.5-6.5,0.5-9.8H469.4z"/>
				<path d="M449.8,228.8c0,3.3-0.2,6.6-0.5,9.8c-1,10.4-3.6,20.2-7.7,29.4c-1.5,3.4-3.1,6.7-4.9,9.8c-6.7,11.5-15.5,21.5-26.1,29.4
					c-5,3.7-10.4,7-16,9.8c-12.9,6.3-27.4,9.8-42.9,9.8c-15.4,0-29.9-3.6-42.9-9.8c-5.7-2.7-11-6-16-9.8
					c-10.6-7.9-19.5-18-26.1-29.4c-1.8-3.2-3.5-6.5-4.9-9.8c-4-9.2-6.7-19.1-7.7-29.4c-0.4-3.2-0.5-6.5-0.5-9.8
					c0-54.2,43.9-98.1,98.1-98.1S449.8,174.6,449.8,228.8z M440,228.8c0-48.7-39.7-88.3-88.3-88.3s-88.3,39.7-88.3,88.3
					s39.7,88.3,88.3,88.3S440,277.5,440,228.8z"/>
				<path d="M308.8,317.1h-74.9v-9.8h58.9C297.8,311.1,303.2,314.3,308.8,317.1z"/>
				<path d="M266.7,277.9H234V268h27.8l0,0C263.1,271.4,264.9,274.7,266.7,277.9z"/>
				<path d="M254,238.6l-0.5,0.1H234v-9.8h19.6C253.6,232.1,253.7,235.4,254,238.6z"/>
				<path d="M214.3,258.3v-78.5h19.6v49.1v9.8v29.4v9.8v29.4v9.8v19.6v9.8v29.4v9.8v29.4v9.8v19.6v9.8v107.9H121.1
					c-8.1,0-14.7-6.7-14.7-14.7V272.9c0-8.1,6.7-14.7,14.7-14.7L214.3,258.3L214.3,258.3z M214.3,268h-93.2c-2.6,0-4.9,2.3-4.9,4.9
					v274.8c0,2.6,2.3,4.9,4.9,4.9h93.3L214.3,268L214.3,268z"/>
			</g>
			<g>
				<path class="st2" d="M214.3,258.3h-93.2c-8.1,0-14.7,6.7-14.7,14.7v274.8c0,8.1,6.7,14.7,14.7,14.7H234"/>
				<path class="st2" d="M469.4,562.4h114.1c8.1,0,14.7-6.7,14.7-14.7V272.9c0-8.1-6.7-14.7-14.7-14.7h-94.4"/>
				<path class="st2" d="M489.1,268h94.5c2.6,0,4.9,2.3,4.9,4.9v274.8c0,2.6-2.3,4.9-4.9,4.9h-94.5"/>
				<path class="st2" d="M214.3,552.6h-93.2c-2.6,0-4.9-2.3-4.9-4.9V272.9c0-2.6,2.3-4.9,4.9-4.9h93.3"/>
				<polyline class="st2" points="233.9,562.4 233.9,454.5 233.9,444.7 233.9,425 233.9,415.3 233.9,385.8 233.9,376 233.9,346.5 
					233.9,336.8 233.9,317.1 233.9,307.3 233.9,277.9 233.9,268 233.9,238.6 233.9,228.8 233.9,179.8 214.3,179.8 214.3,258.3 
					214.3,268 214.3,552.6 				"/>
				<polyline class="st2" points="469.4,562.4 469.4,454.5 469.4,444.7 469.4,425 469.4,415.3 469.4,385.8 469.4,376 469.4,346.5 
					469.4,336.8 469.4,317.1 469.4,307.3 469.4,277.9 469.4,268 469.4,238.6 469.4,228.8 469.4,179.8 489.1,179.8 489.1,258.3 
					489.1,268 489.1,552.6 				"/>
				<line class="st2" x1="469.4" y1="444.7" x2="233.9" y2="444.7"/>
				<line class="st2" x1="233.9" y1="454.5" x2="469.4" y2="454.5"/>
				<line class="st2" x1="469.4" y1="415.3" x2="233.9" y2="415.3"/>
				<line class="st2" x1="233.9" y1="425" x2="469.4" y2="425"/>
				<line class="st2" x1="469.4" y1="376" x2="233.9" y2="376"/>
				<line class="st2" x1="233.9" y1="385.8" x2="469.4" y2="385.8"/>
				<line class="st2" x1="469.4" y1="336.8" x2="233.9" y2="336.8"/>
				<line class="st2" x1="233.9" y1="346.5" x2="469.4" y2="346.5"/>
				<line class="st2" x1="292.8" y1="307.3" x2="233.9" y2="307.3"/>
				<line class="st2" x1="469.4" y1="307.3" x2="410.6" y2="307.3"/>
				<line class="st2" x1="394.5" y1="317.1" x2="469.4" y2="317.1"/>
				<line class="st2" x1="233.9" y1="317.1" x2="308.8" y2="317.1"/>
				<line class="st2" x1="261.7" y1="268" x2="233.9" y2="268"/>
				<line class="st2" x1="469.4" y1="268" x2="441.6" y2="268"/>
				<line class="st2" x1="436.6" y1="277.9" x2="469.4" y2="277.9"/>
				<line class="st2" x1="233.9" y1="277.9" x2="266.7" y2="277.9"/>
				<line class="st2" x1="253.6" y1="228.8" x2="233.9" y2="228.8"/>
				<line class="st2" x1="469.4" y1="228.8" x2="449.8" y2="228.8"/>
				<line class="st2" x1="449.3" y1="238.6" x2="469.4" y2="238.6"/>
				<line class="st2" x1="233.9" y1="238.6" x2="253.6" y2="238.6"/>
				<path class="st2" d="M449.8,228.8c0-54.2-43.9-98.1-98.1-98.1s-98.1,43.9-98.1,98.1c0,3.3,0.2,6.6,0.5,9.8
					c1,10.4,3.6,20.3,7.7,29.4c1.5,3.4,3.1,6.7,4.9,9.8c6.7,11.5,15.6,21.5,26.1,29.4c5,3.7,10.4,7,16,9.8
					c12.9,6.3,27.4,9.8,42.9,9.8s29.9-3.6,42.9-9.8c5.7-2.7,11-6,16-9.8c10.6-7.9,19.4-18,26.1-29.4c1.8-3.2,3.5-6.5,4.9-9.8
					c4-9.2,6.7-19.1,7.7-29.4C449.6,235.4,449.8,232.1,449.8,228.8"/>
				<path class="st2" d="M351.7,140.5c-48.7,0-88.3,39.7-88.3,88.3s39.7,88.3,88.3,88.3s88.3-39.6,88.3-88.3
					S400.3,140.5,351.7,140.5z"/>
			</g>
		</g>
	</g>
	<circle class="st2" cx="351.7" cy="228.8" r="88.3"/>
	<circle class="st2" cx="351.7" cy="228.8" r="88.3"/>
	<g id="XMLID_2_">
		<g>
			<path d="M401.3,215h-34.1v72.7h-30.8V215h-34.1l49.5-44L401.3,215z M359.4,207.8h22.3L351.7,181l-30.1,26.7h22.3v72.7h15.4
				L359.4,207.8L359.4,207.8z"/>
			<polygon class="st3" points="381.8,207.8 359.4,207.8 359.4,280.4 344,280.4 344,207.8 321.7,207.8 351.8,181 			"/>
		</g>
		<g>
			<polyline class="st2" points="401.3,215 367.2,215 367.2,287.7 336.3,287.7 336.3,215 302.2,215 			"/>
			<polyline class="st2" points="302.2,215 351.8,171 401.3,215 			"/>
			<polygon class="st2" points="359.4,207.8 359.4,280.4 344,280.4 344,207.8 321.7,207.8 351.8,181 381.8,207.8 			"/>
		</g>
	</g>
	<circle class="st2" cx="351.7" cy="228.8" r="88.3"/>
</g>
</svg>
