<?xml version="1.0" encoding="utf-8"?>
<!-- Generator: Adobe Illustrator 22.1.0, SVG Export Plug-In . SVG Version: 6.00 Build 0)  -->
<svg version="1.1" id="Layer_1" xmlns="http://www.w3.org/2000/svg" xmlns:xlink="http://www.w3.org/1999/xlink" x="0px" y="0px"
	 viewBox="0 0 698 698" style="enable-background:new 0 0 698 698;" xml:space="preserve">
<style type="text/css">
	.st0{display:none;}
	.st1{display:inline;}
	.st2{fill:none;stroke:#000000;stroke-width:0.5;stroke-linecap:round;stroke-linejoin:round;}
	.st3{display:inline;fill:none;stroke:#000000;stroke-width:0.5;stroke-linecap:round;stroke-linejoin:round;}
	.st4{fill:#FFFFFF;}
	.st5{fill:none;stroke:#000000;stroke-linejoin:round;}
	.st6{fill:none;stroke:#000000;stroke-linecap:round;stroke-linejoin:round;}
	.st7{fill:none;stroke:#000000;stroke-width:0.25;stroke-miterlimit:10;}
	.st8{stroke:#000000;stroke-width:0.25;stroke-miterlimit:10;}
</style>
<g id="Capa_1" class="st0">
	<g class="st1">
		<g>
			<g>
				<path d="M598.5,155.4c4.4,0,8-3.6,8-8v-48c0-4.4-3.6-8-8-8h-464c-4.4,0-8,3.6-8,8v48c0,4.4,3.6,8,8,8h16v400h-16
					c-4.4,0-8,3.6-8,8s3.6,8,8,8h464c4.4,0,8-3.6,8-8s-3.6-8-8-8h-16v-400L598.5,155.4L598.5,155.4z M534.5,555.5h-336v-48h336
					V555.5z M534.5,491.4h-336v-48h336V491.4z M534.5,427.4h-336v-48h336V427.4z M534.5,363.4h-336v-48h336V363.4z M534.5,299.4
					h-336v-48h336V299.4z M534.5,235.4h-336v-48h336V235.4z M566.5,555.5h-16v-376c0-4.4-3.6-8-8-8h-352c-4.4,0-8,3.6-8,8v376h-16
					v-400h400V555.5z M142.5,139.4v-32h448v32H142.5z"/>
				<path d="M342.5,547.5h48c4.4,0,8-3.6,8-8s-3.6-8-8-8h-48c-4.4,0-8,3.6-8,8S338.1,547.5,342.5,547.5z"/>
			</g>
		</g>
	</g>
</g>
<g id="Layer_2_1_" class="st0">
	<g class="st1">
		<g id="XMLID_1_">
			<g>
				<path d="M529.8,242.8V555h103.6c2.9,0,5.4-2.5,5.4-5.4V248.2c0-2.9-2.5-5.4-5.4-5.4H529.8z M529.8,232h103.6
					c8.9,0,16.1,7.3,16.1,16.1v301.4c0,8.9-7.3,16.1-16.1,16.1H508.3V447.3v-10.8V415v-10.8V372v-10.8v-32.3v-10.8v-21.5v-10.8
					v-32.2v-10.8v-32.2v-10.8v-53.8h21.5L529.8,232L529.8,232z"/>
				<rect x="249.9" y="436.5" width="258.3" height="10.8"/>
				<rect x="249.9" y="404.3" width="258.3" height="10.8"/>
				<rect x="249.9" y="361.3" width="258.3" height="10.8"/>
				<rect x="249.9" y="318.1" width="258.3" height="10.8"/>
				<path d="M508.3,285.8v10.8H426c6.2-3,12.1-6.6,17.6-10.8H508.3z"/>
				<path d="M508.3,242.8v10.7h-35.9c2-3.5,3.8-7.1,5.4-10.8l0,0h30.5V242.8z"/>
				<path d="M508.3,199.7v10.8h-22.1l0,0c0.4-3.5,0.5-7.1,0.5-10.8H508.3z"/>
				<path d="M486.8,199.7c0,3.6-0.2,7.2-0.5,10.8c-1.1,11.4-4,22.2-8.4,32.3c-1.6,3.7-3.4,7.3-5.4,10.8c-7.3,12.6-17,23.6-28.6,32.3
					c-5.5,4.1-11.4,7.7-17.6,10.8c-14.2,6.9-30.1,10.8-47,10.8s-32.8-3.9-47-10.8c-6.2-3-12.1-6.6-17.6-10.8
					c-11.6-8.7-21.4-19.7-28.6-32.3c-2-3.5-3.8-7.1-5.4-10.8c-4.4-10.1-7.3-20.9-8.4-32.3c-0.4-3.5-0.5-7.1-0.5-10.7
					c0-59.4,48.2-107.6,107.6-107.6S486.8,140.3,486.8,199.7z M476,199.7c0-53.4-43.5-96.9-96.9-96.9s-96.9,43.5-96.9,96.9
					s43.5,96.9,96.9,96.9S476,253.1,476,199.7z"/>
				<path d="M332.1,296.6h-82.2v-10.8h64.6C320,290,325.9,293.6,332.1,296.6z"/>
				<path d="M285.9,253.5H250v-10.8h30.5l0,0C282,246.5,283.9,250.1,285.9,253.5z"/>
				<path d="M272,210.4l-0.5,0.1H250v-10.8h21.5C271.5,203.4,271.6,206.9,272,210.4z"/>
				<path d="M228.4,232v-86.1h21.5v53.8v10.8v32.3v10.7v32.3v10.8v21.5v10.8v32.3V372v32.3v10.8v21.4v10.8v118.4H126.2
					c-8.9,0-16.1-7.3-16.1-16.1V248.2c0-8.9,7.3-16.1,16.1-16.1L228.4,232L228.4,232z M228.4,242.8H126.2c-2.9,0-5.4,2.5-5.4,5.4
					v301.3c0,2.9,2.5,5.4,5.4,5.4h102.3V242.8H228.4z"/>
			</g>
			<g>
				<path class="st2" d="M228.4,232H126.2c-8.9,0-16.1,7.3-16.1,16.1v301.4c0,8.9,7.3,16.1,16.1,16.1H250"/>
				<path class="st2" d="M508.3,565.8h125.1c8.9,0,16.1-7.3,16.1-16.1V248.2c0-8.9-7.3-16.1-16.1-16.1H529.8"/>
				<path class="st2" d="M529.8,242.8h103.6c2.9,0,5.4,2.5,5.4,5.4v301.3c0,2.9-2.5,5.4-5.4,5.4H529.8"/>
				<path class="st2" d="M228.4,555H126.2c-2.9,0-5.4-2.5-5.4-5.4V248.2c0-2.9,2.5-5.4,5.4-5.4h102.3"/>
				<polyline class="st2" points="249.9,565.8 249.9,447.3 249.9,436.5 249.9,415 249.9,404.3 249.9,371.9 249.9,361.3 249.9,328.9 
					249.9,318.1 249.9,296.6 249.9,285.8 249.9,253.5 249.9,242.8 249.9,210.5 249.9,199.7 249.9,145.9 228.4,145.9 228.4,232 
					228.4,242.8 228.4,555 				"/>
				<polyline class="st2" points="508.3,565.8 508.3,447.3 508.3,436.5 508.3,415 508.3,404.3 508.3,371.9 508.3,361.3 508.3,328.9 
					508.3,318.1 508.3,296.6 508.3,285.8 508.3,253.5 508.3,242.8 508.3,210.5 508.3,199.7 508.3,145.9 529.8,145.9 529.8,232 
					529.8,242.8 529.8,555 				"/>
				<line class="st2" x1="508.3" y1="436.5" x2="249.9" y2="436.5"/>
				<line class="st2" x1="249.9" y1="447.3" x2="508.3" y2="447.3"/>
				<line class="st2" x1="508.3" y1="404.3" x2="249.9" y2="404.3"/>
				<line class="st2" x1="249.9" y1="415" x2="508.3" y2="415"/>
				<line class="st2" x1="508.3" y1="361.3" x2="249.9" y2="361.3"/>
				<line class="st2" x1="249.9" y1="371.9" x2="508.3" y2="371.9"/>
				<line class="st2" x1="508.3" y1="318.1" x2="249.9" y2="318.1"/>
				<line class="st2" x1="249.9" y1="328.9" x2="508.3" y2="328.9"/>
				<line class="st2" x1="314.5" y1="285.8" x2="249.9" y2="285.8"/>
				<line class="st2" x1="508.3" y1="285.8" x2="443.8" y2="285.8"/>
				<line class="st2" x1="426.1" y1="296.6" x2="508.3" y2="296.6"/>
				<line class="st2" x1="249.9" y1="296.6" x2="332.1" y2="296.6"/>
				<line class="st2" x1="280.4" y1="242.8" x2="249.9" y2="242.8"/>
				<line class="st2" x1="508.3" y1="242.8" x2="477.8" y2="242.8"/>
				<line class="st2" x1="472.3" y1="253.5" x2="508.3" y2="253.5"/>
				<line class="st2" x1="249.9" y1="253.5" x2="285.9" y2="253.5"/>
				<line class="st2" x1="271.5" y1="199.7" x2="249.9" y2="199.7"/>
				<line class="st2" x1="508.3" y1="199.7" x2="486.8" y2="199.7"/>
				<line class="st2" x1="486.3" y1="210.5" x2="508.3" y2="210.5"/>
				<line class="st2" x1="249.9" y1="210.5" x2="271.5" y2="210.5"/>
				<path class="st2" d="M486.8,199.7c0-59.4-48.2-107.6-107.6-107.6s-107.6,48.2-107.6,107.6c0,3.6,0.2,7.2,0.5,10.7
					c1.1,11.4,4,22.3,8.4,32.3c1.6,3.7,3.4,7.3,5.4,10.8c7.3,12.6,17.1,23.6,28.6,32.3c5.5,4.1,11.4,7.7,17.6,10.8
					c14.2,6.9,30.1,10.8,47,10.8s32.8-3.9,47-10.8c6.2-3,12.1-6.6,17.6-10.8c11.6-8.7,21.3-19.7,28.6-32.3c2-3.5,3.8-7.1,5.4-10.8
					c4.4-10.1,7.3-20.9,8.4-32.3C486.5,207,486.8,203.4,486.8,199.7"/>
				<path class="st2" d="M379.1,102.9c-53.4,0-96.9,43.5-96.9,96.9s43.5,96.9,96.9,96.9s96.9-43.4,96.9-96.9
					S432.5,102.9,379.1,102.9z"/>
			</g>
		</g>
	</g>
	<circle class="st3" cx="379.1" cy="199.7" r="96.9"/>
	<circle class="st3" cx="379.1" cy="199.7" r="96.9"/>
	<g id="XMLID_2_" class="st1">
		<g>
			<path d="M433.5,184.7h-37.4v79.7h-33.8v-79.7H325l54.3-48.3L433.5,184.7z M387.6,176.7h24.5l-33-29.3l-33,29.3h24.5v79.7h16.9
				v-79.7H387.6z"/>
			<polygon class="st4" points="412.3,176.7 387.6,176.7 387.6,256.4 370.8,256.4 370.8,176.7 346.3,176.7 379.3,147.3 			"/>
		</g>
		<g>
			<polyline class="st2" points="433.5,184.7 396.1,184.7 396.1,264.4 362.3,264.4 362.3,184.7 324.9,184.7 			"/>
			<polyline class="st2" points="324.9,184.7 379.3,136.4 433.5,184.7 			"/>
			<polygon class="st2" points="387.6,176.7 387.6,256.4 370.8,256.4 370.8,176.7 346.3,176.7 379.3,147.3 412.3,176.7 			"/>
		</g>
	</g>
	<circle class="st3" cx="379.1" cy="199.7" r="96.9"/>
</g>
<g id="Layer_3">
	<g id="XMLID_3_">
		<g>
			<path d="M528.3,254.2H272.8v27.9v8.6v26v8.6v26v8.6v26v8.2l-1.3,142.3h237.3l18.2,8.8h77.6c2.5,0,4.6-2,4.6-4.4l1.3-287h-82.1
				 M103.9,133.7h502c7.5,0,13.7,5.9,13.7,19.8v152.8l-1.3,235c0,7.1-3.9,13-11.4,13H255.5h-2.3l1.3-300.1h-82.1l-1.3,300.1h-68.5
				c-7.5,0-13.7-5.9-13.7-13l1.3-394.5C90.2,139.6,96.4,133.7,103.9,133.7z M145,236.8h465.5v-90.1c0-2.4-2.1-4.4-4.6-4.4H103.9
				c-2.5,0-4.6,2-4.6,4.4L98,541.2c0,2.4,2.1,4.4,4.6,4.4h59.4l1.3-291.4H145C145,254.2,145,236.8,145,236.8z"/>
		</g>
		<g>
			<polyline class="st5" points="271.4,536.8 272.8,394.6 272.8,386.4 272.8,360.4 272.8,351.6 272.8,325.5 272.8,316.9 
				272.8,290.8 272.8,282.1 272.8,254.2 			"/>
			<path class="st5" d="M610.5,254.2l-1.3,287c0,2.4-2.1,4.4-4.6,4.4"/>
			<path class="st5" d="M161.9,545.6h-59.4c-2.5,0-4.6-2-4.6-4.4l1.3-394.5c0-2.4,2.1-4.4,4.6-4.4h502c2.5,0,4.6,2,4.6,4.4v90.1"/>
			<path class="st6" d="M619.8,299.5l-1.3,241.8c0,7.1-3.9,13-11.4,13H255.7"/>
			<path class="st6" d="M171.1,554.3h-68.5c-7.5,0-13.7-5.9-13.7-13l1.3-394.6c0-7.1,6.2-13,13.7-13h502c7.5,0,13.7,5.9,13.7,19.8
				v152.8"/>
			<line class="st6" x1="163.3" y1="254.2" x2="161.9" y2="545.6"/>
			<line class="st6" x1="171.1" y1="554.3" x2="172.5" y2="254.2"/>
			<line class="st6" x1="254.6" y1="254.2" x2="172.5" y2="254.2"/>
			<line class="st6" x1="528.3" y1="254.2" x2="272.8" y2="254.2"/>
			<line class="st6" x1="610.5" y1="254.2" x2="528.3" y2="254.2"/>
			<polyline class="st6" points="163.3,254.2 145,254.2 145,236.8 610.5,236.8 			"/>
			<line class="st6" x1="254.6" y1="254.2" x2="253.2" y2="554.3"/>
			<path class="st6" d="M528.3,254.2"/>
			<path class="st6" d="M508.8,545.6"/>
		</g>
	</g>
</g>
<path d="M273.4,433.7"/>
<path class="st7" d="M273.4,295.6"/>
<g id="XMLID_6_">
	<g>
		<path d="M527,305.5c2.1,0.5,4.2,0.9,6.3,1.5c3.7,1,7.2,2.4,10.6,3.9c5.1,2.3,10,4.9,14.5,8.2c22.8,15.8,37.7,42.1,37.7,71.9
			c0,29.8-14.9,56.1-37.7,71.9c-4.6,3.1-9.4,5.9-14.5,8.1c-3.4,1.5-7,2.8-10.6,3.9c-5,1.4-10.2,2.5-15.5,3c-2.9,0.3-6,0.5-8.9,0.5
			l0,0c-29.9,0-56.3-15.1-72.1-38c-1.7-2.5-3.2-5-4.7-7.6c-6.2-11.4-10-24.3-10.5-38c-0.1-1.2-0.1-2.6-0.1-3.8s0-2.6,0.1-3.8
			c0.6-13.7,4.4-26.6,10.5-38c1.4-2.7,2.9-5.1,4.7-7.6c15.8-22.9,42.2-38,72.1-38l0,0c3,0,6,0.2,8.9,0.5
			C520.9,304.4,524,304.8,527,305.5z M588.5,391c0-26.2-12.9-50.7-34.5-65.6c-4.2-2.8-8.6-5.4-13.2-7.4c-3.2-1.4-6.5-2.6-9.8-3.5
			c-4.7-1.3-9.4-2.3-14.2-2.8c-2.7-0.3-5.4-0.4-8.2-0.4c-44,0-79.8,35.8-79.8,79.8s35.8,79.8,79.8,79.8c2.8,0,5.5-0.1,8.2-0.4
			c4.7-0.5,9.5-1.4,14.2-2.8c3.3-0.9,6.6-2.2,9.8-3.5c4.7-2,9.1-4.6,13.3-7.4C575.7,441.7,588.5,417.2,588.5,391z"/>
		<path d="M561.9,387.2l-41.1,41.1v-25.9H460V372h60.8V346L561.9,387.2z M528.3,410l22.8-22.8l-22.8-22.8v15.2h-60.8v15.2h60.8V410z
			"/>
	</g>
	<g>
		<path class="st7" d="M527,305.5c2.1,0.5,4.2,0.9,6.3,1.5c3.7,1,7.2,2.4,10.6,3.9c5.1,2.3,10,4.9,14.5,8.2
			c22.8,15.8,37.7,42.1,37.7,71.9c0,29.8-14.9,56.1-37.7,71.9c-4.6,3.1-9.4,5.9-14.5,8.1c-3.4,1.5-7,2.8-10.6,3.9
			c-5,1.4-10.2,2.5-15.5,3c-2.9,0.3-6,0.5-8.9,0.5l0,0c-29.9,0-56.3-15.1-72.1-38c-1.7-2.5-3.2-5-4.7-7.6c-6.2-11.4-10-24.3-10.5-38
			c-0.1-1.2-0.1-2.6-0.1-3.8s0-2.6,0.1-3.8c0.6-13.7,4.4-26.6,10.5-38c1.4-2.7,2.9-5.1,4.7-7.6c15.8-22.9,42.2-38,72.1-38l0,0
			c3,0,6,0.2,8.9,0.5C520.9,304.4,524,304.8,527,305.5z"/>
		<path class="st7" d="M508.9,470.7c-44,0-79.8-35.8-79.8-79.8s35.8-79.8,79.8-79.8c2.8,0,5.5,0.1,8.2,0.4c4.7,0.5,9.5,1.4,14.2,2.8
			c3.2,0.9,6.6,2.2,9.8,3.5c4.7,2,9.1,4.6,13.2,7.4c21.6,14.9,34.5,39.5,34.5,65.6c0,26.2-12.9,50.7-34.5,65.6
			c-4.2,2.8-8.6,5.4-13.3,7.4c-3.1,1.4-6.5,2.6-9.8,3.5c-4.7,1.3-9.4,2.3-14.2,2.8C514.3,470.6,511.5,470.7,508.9,470.7z"/>
		<polyline class="st7" points="508.8,304.5 508.8,303.6 508.8,249.6 		"/>
		<line class="st7" x1="508.8" y1="536.6" x2="508.8" y2="478.3"/>
		<polyline class="st7" points="527,307.4 527,305.5 527,249.6 		"/>
		<line class="st7" x1="527" y1="545.6" x2="527" y2="476.4"/>
		<polyline class="st7" points="437.2,341.6 436.8,341.6 270,341.6 		"/>
		<polyline class="st7" points="432.4,349.2 432,349.2 270,349.2 		"/>
		<polyline class="st7" points="422.9,387.2 421.5,387.2 270,387.2 		"/>
		<polyline class="st7" points="422.9,394.8 421.5,394.8 270,394.8 		"/>
		<polyline class="st7" points="432.4,432.7 432,432.7 270,432.7 		"/>
		<polyline class="st7" points="437.2,440.3 436.8,440.3 270,440.3 		"/>
		<line class="st7" x1="508.4" y1="478.3" x2="270" y2="478.3"/>
		<line class="st7" x1="508.4" y1="485.9" x2="270" y2="485.9"/>
		<polygon class="st7" points="520.7,402.4 460,402.4 460,372 520.7,372 520.7,346 561.9,387.2 520.7,428.3 		"/>
		<polygon class="st7" points="528.3,379.6 467.6,379.6 467.6,394.8 528.3,394.8 528.3,410 551.1,387.2 528.3,364.4 		"/>
	</g>
</g>
<rect x="272.5" y="296" width="236.3" height="7.6"/>
<rect x="508.8" y="251.3" class="st8" width="18.2" height="56.2"/>
<rect x="265.3" y="341.6" class="st8" width="171.9" height="7.6"/>
<rect x="263.2" y="387.2" class="st8" width="159.8" height="7.6"/>
<rect x="268.6" y="432.7" class="st8" width="168.6" height="7.6"/>
<rect x="272.1" y="478.3" class="st8" width="236.3" height="7.6"/>
<rect x="508.4" y="472.7" class="st8" width="18.6" height="76"/>
</svg>
