<?xml version="1.0" encoding="utf-8"?>
<!-- Generator: Adobe Illustrator 22.1.0, SVG Export Plug-In . SVG Version: 6.00 Build 0)  -->
<svg version="1.1" id="Layer_1" xmlns="http://www.w3.org/2000/svg" xmlns:xlink="http://www.w3.org/1999/xlink" x="0px" y="0px"
	 viewBox="0 0 813.7 813.7" style="enable-background:new 0 0 813.7 813.7;" xml:space="preserve">
<g>
	<g>
		<path d="M637.3,150.9c-14.1,0-25.6,11.5-25.6,25.6v93.9h-25.6v-66c0-10.7-8.7-19.4-19.4-19.4H503c-10.7,0-19.4,8.7-19.4,19.4v66
			H458v-66c0-10.7-8.7-19.4-19.4-19.4h-63.7c-10.7,0-19.4,8.7-19.4,19.4v66h-25.6v-66c0-10.7-8.7-19.4-19.4-19.4h-63.7
			c-10.7,0-19.4,8.7-19.4,19.4v66h-25.6v-93.9c0-14.1-11.5-25.6-25.6-25.6c-14.1,0-25.3,11.5-25.3,25.6v486.4h51.2v-51.2h25.6h102.4
			h25.6h102.4h25.6h102.4h25.6v51.2h51.2V176.5C662.9,162.4,651.4,150.9,637.3,150.9z M500.8,204.4c0-1.3,1-2.3,2.3-2.3h63.7
			c1.3,0,2.3,1,2.3,2.3v66h-68.3L500.8,204.4L500.8,204.4z M372.8,204.4c0-1.3,1-2.3,2.3-2.3h63.7c1.3,0,2.3,1,2.3,2.3v66h-68.3
			L372.8,204.4L372.8,204.4z M244.8,204.4c0-1.3,1-2.3,2.3-2.3h63.7c1.3,0,2.3,1,2.3,2.3v66h-68.3L244.8,204.4L244.8,204.4z
			 M227.7,287.4h102.4h25.6h102.4h25.6h102.4h25.6v145.1h-25.6v-66c0-10.7-8.7-19.4-19.4-19.4H503c-10.7,0-19.4,8.7-19.4,19.4v66
			H458v-66c0-10.7-8.7-19.4-19.4-19.4h-63.7c-10.7,0-19.4,8.7-19.4,19.4v66h-25.6v-66c0-10.7-8.7-19.4-19.4-19.4h-63.7
			c-10.7,0-19.4,8.7-19.4,19.4v66h-25.6V287.4H227.7z M569,432.5h-68.3v-66c0-1.3,1-2.3,2.3-2.3h63.7c1.3,0,2.3,1,2.3,2.3V432.5
			L569,432.5z M441,432.5h-68.3v-66c0-1.3,1-2.3,2.3-2.3h63.7c1.3,0,2.3,1,2.3,2.3L441,432.5L441,432.5z M313,432.5h-68.3v-66
			c0-1.3,1-2.3,2.3-2.3h63.7c1.3,0,2.3,1,2.3,2.3V432.5L313,432.5z M185,645.8h-17.1V176.5c0-4.7,3.8-8.5,8.5-8.5s8.5,3.8,8.5,8.5
			v469.3L185,645.8L185,645.8z M244.8,594.6v-66c0-1.3,1-2.3,2.3-2.3h63.7c1.3,0,2.3,1,2.3,2.3v66H244.8L244.8,594.6z M372.8,594.6
			v-66c0-1.3,1-2.3,2.3-2.3h63.7c1.3,0,2.3,1,2.3,2.3v66H372.8L372.8,594.6z M500.8,594.6v-66c0-1.3,1-2.3,2.3-2.3h63.7
			c1.3,0,2.3,1,2.3,2.3v66H500.8L500.8,594.6z M586.1,594.6v-66c0-10.7-8.7-19.4-19.4-19.4H503c-10.7,0-19.4,8.7-19.4,19.4v66H458
			v-66c0-10.7-8.7-19.4-19.4-19.4h-63.7c-10.7,0-19.4,8.7-19.4,19.4v66h-25.6v-66c0-10.7-8.7-19.4-19.4-19.4h-63.7
			c-10.7,0-19.4,8.7-19.4,19.4v66h-25.6v-145h25.6h102.4h25.6h102.4h25.6h102.4h25.6v145.1L586.1,594.6L586.1,594.6z M645.8,645.8
			h-17.1V176.5c0-4.7,3.8-8.5,8.5-8.5s8.5,3.8,8.5,8.5L645.8,645.8L645.8,645.8z"/>
	</g>
</g>
</svg>
