<?xml version="1.0" encoding="utf-8"?>
<!-- Generator: Adobe Illustrator 22.1.0, SVG Export Plug-In . SVG Version: 6.00 Build 0)  -->
<svg version="1.1" id="Layer_1" xmlns="http://www.w3.org/2000/svg" xmlns:xlink="http://www.w3.org/1999/xlink" x="0px" y="0px"
	 viewBox="0 0 693.8 693.8" style="enable-background:new 0 0 693.8 693.8;" xml:space="preserve">
<g>
	<g>
		<g>
			<path d="M333,550c-11-8.8-20.8-19.1-29.1-30.5c-3.2-4.5-9.5-5.5-14-2.3s-5.5,9.5-2.3,14c9.3,12.9,20.3,24.5,32.8,34.5
				c1.8,1.5,4,2.2,6.2,2.2c2.9,0,5.8-1.3,7.8-3.8C338,559.7,337.3,553.4,333,550z"/>
			<path d="M506,296.1c12.2,7.1,23.4,15.8,33.3,25.9c2,2,4.6,3,7.2,3c2.5,0,5-0.9,7-2.8c4-3.9,4-10.2,0.2-14.1
				c-11.1-11.4-23.8-21.2-37.6-29.2c-4.8-2.8-10.9-1.1-13.7,3.7C499.5,287.2,501.2,293.3,506,296.1z"/>
			<path d="M579.2,395.2c1.1,4.6,5.2,7.8,9.7,7.8c0.7,0,1.5-0.1,2.2-0.3c5.4-1.2,8.8-6.6,7.5-12c-3.5-15.5-9.2-30.5-16.9-44.5
				c-2.6-4.8-8.7-6.6-13.6-4c-4.8,2.6-6.6,8.7-4,13.6C571,368.2,576,381.5,579.2,395.2z"/>
			<path d="M409.9,582.3c-14-1.7-27.7-5.4-40.7-10.9c-5.1-2.1-11,0.2-13.1,5.3s0.2,11,5.3,13.1c14.7,6.2,30.1,10.3,46,12.3
				c0.4,0.1,0.8,0.1,1.2,0.1c5,0,9.3-3.7,9.9-8.8C419.2,588,415.3,583,409.9,582.3z"/>
			<path d="M479.1,273c1.4-5.4-1.9-10.8-7.2-12.2c-10.8-2.7-21.9-4.4-33.2-5c-5.1-91.4-81-164.3-173.7-164.3
				c-95.9,0-174,78.1-174,174c0,92.9,73.1,168.9,164.8,173.8c-0.3,1-0.4,2.1-0.3,3.3c1.2,15.9,4.5,31.6,10,46.5
				c1.5,4.1,5.3,6.6,9.4,6.6c1.1,0,2.3-0.2,3.4-0.6c5.2-1.9,7.9-7.6,6-12.8c-4.8-13.2-7.8-27.1-8.8-41.2c0-0.6-0.2-1.2-0.3-1.8
				c87.7-5.1,158.2-75.4,163.6-163l0,0c0-0.1,0-0.2,0-0.4c9.6,0.6,19,2.1,28.3,4.4C472.3,281.6,477.8,278.4,479.1,273z M275.3,419.2
				c5.1-76.7,66.6-138.2,143.3-143.3C413.5,352.6,352,414.1,275.3,419.2z M255.3,419.2L255.3,419.2c-80.4-5-144.3-72-144.3-153.7
				c0-84.9,69.1-154,154-154c81.7,0,148.7,63.9,153.7,144.3l0,0C330.9,261,260.5,331.5,255.3,419.2z"/>
			<path d="M593.3,427.7c-5.5-0.3-10.2,4-10.5,9.5c-0.7,14.1-3.3,28-7.8,41.4c-1.8,5.2,1.1,10.9,6.3,12.7c1.1,0.4,2.1,0.5,3.2,0.5
				c4.2,0,8.1-2.6,9.5-6.8c5.1-15.1,8-30.8,8.8-46.8C603.1,432.6,598.8,428,593.3,427.7z"/>
			<path d="M570.2,513.6c-4.6-3.1-10.8-1.9-13.9,2.6c-7.9,11.6-17.5,22.2-28.3,31.2c-4.2,3.6-4.8,9.9-1.2,14.1
				c2,2.4,4.8,3.6,7.7,3.6c2.3,0,4.6-0.8,6.4-2.3c12.2-10.3,22.9-22.1,31.9-35.3C575.9,523,574.7,516.7,570.2,513.6z"/>
			<path d="M492.4,569.9c-12.8,5.8-26.4,9.8-40.4,11.9c-5.5,0.8-9.2,5.9-8.4,11.4c0.7,5,5,8.5,9.9,8.5c0.5,0,1,0,1.5-0.1
				c15.8-2.4,31.1-6.9,45.7-13.5c5-2.3,7.3-8.2,5-13.2C503.3,569.9,497.4,567.7,492.4,569.9z"/>
			<path d="M184.8,164.5c-31,24.6-48.8,61.5-48.8,101c0,5.5,4.5,10,10,10s10-4.5,10-10c0-33.4,15-64.5,41.2-85.4
				c4.3-3.4,5-9.7,1.6-14.1C195.4,161.8,189.1,161.1,184.8,164.5z"/>
			<path d="M265,136.5c-12.2,0-24.2,1.7-35.8,5c-5.3,1.5-8.4,7.1-6.8,12.4c1.3,4.4,5.3,7.2,9.6,7.2c0.9,0,1.8-0.1,2.8-0.4
				c9.8-2.8,20-4.2,30.2-4.2c5.5,0,10-4.5,10-10S270.5,136.5,265,136.5z"/>
		</g>
	</g>
</g>
</svg>
