<?xml version="1.0" encoding="utf-8"?>
<!-- Generator: Adobe Illustrator 22.1.0, SVG Export Plug-In . SVG Version: 6.00 Build 0)  -->
<svg version="1.1" id="Layer_1" xmlns="http://www.w3.org/2000/svg" xmlns:xlink="http://www.w3.org/1999/xlink" x="0px" y="0px"
	 viewBox="0 0 374.1 374.1" style="enable-background:new 0 0 374.1 374.1;" xml:space="preserve">
<style type="text/css">
	.st0{fill:none;stroke:#000000;stroke-width:3.5;stroke-linecap:round;stroke-linejoin:round;stroke-miterlimit:10;}
</style>
<g>
	<g id="LWPOLYLINE">
		<line class="st0" x1="159.2" y1="220.4" x2="159.2" y2="316.7"/>
	</g>
	<g id="LWPOLYLINE_1_">
		<line class="st0" x1="118.6" y1="215.1" x2="118.6" y2="310.7"/>
	</g>
	<g id="LWPOLYLINE_2_">
		<line class="st0" x1="56" y1="150.5" x2="62.2" y2="246.8"/>
	</g>
	<g id="LWPOLYLINE_3_">
		<path class="st0" d="M325.4,127.3l-79.3-58.1c-6.8-4.9-15.7-6.1-23.6-3l-167,64.4c-3.6,1.4-5.4,5.4-4,9c0.3,0.9,0.9,1.7,1.5,2.4
			l70.2,72.2c7.4,7.6,18.7,9.7,28.4,5.3l172.5-80.2c3.5-1.6,5-5.8,3.4-9.3C327.2,128.9,326.4,128,325.4,127.3z"/>
	</g>
	<g id="LWPOLYLINE_4_">
		<path class="st0" d="M329.8,124.8l-83.4-60.2c-6.9-4.9-15.7-6-23.6-3l-170,65.7c-5.2,2-7.7,7.8-5.8,12.9c0.5,1.3,1.2,2.4,2.2,3.4
			l73.2,75.5c7.4,7.6,18.7,9.7,28.4,5.3L328.2,142c5-2.3,7.2-8.3,4.9-13.3C332.3,127.1,331.2,125.8,329.8,124.8z"/>
	</g>
	<g id="LINE">
		<line class="st0" x1="255.2" y1="171.4" x2="240.7" y2="160.3"/>
	</g>
	<g id="ARC">
		<path class="st0" d="M240.7,160.3c-6.1-6.5-15.7-8.3-23.7-4.5"/>
	</g>
	<g id="LINE_1_">
		<line class="st0" x1="217" y1="155.8" x2="110.8" y2="201.3"/>
	</g>
	<g id="ARC_1_">
		<path class="st0" d="M53,232.5c0.2,3.2,1.6,6.2,3.9,8.3"/>
	</g>
	<g id="LINE_2_">
		<line class="st0" x1="56.9" y1="240.8" x2="122.5" y2="315"/>
	</g>
	<g id="ARC_2_">
		<path class="st0" d="M122.5,315c7.5,7.3,18.5,9.7,28.4,6.1"/>
	</g>
	<g id="LINE_3_">
		<line class="st0" x1="150.9" y1="321.1" x2="312.7" y2="236.9"/>
	</g>
	<g id="ARC_3_">
		<path class="st0" d="M312.7,236.9c4.4-1.9,7.3-6.2,7.3-10.9"/>
	</g>
	<g id="LWPOLYLINE_5_">
		<line class="st0" x1="321" y1="145.3" x2="310.3" y2="238.1"/>
	</g>
	<g id="LWPOLYLINE_10_">
		<line class="st0" x1="46.7" y1="138.7" x2="53" y2="232.5"/>
	</g>
	<g id="LWPOLYLINE_11_">
		<line class="st0" x1="333.9" y1="133.8" x2="320" y2="225.9"/>
	</g>
	<g id="LWPOLYLINE_16_">
		<line class="st0" x1="215.7" y1="80.6" x2="68.6" y2="137.1"/>
	</g>
	<g id="LWPOLYLINE_18_">
		<line class="st0" x1="250.8" y1="83.1" x2="316.6" y2="129.9"/>
	</g>
	<g id="LWPOLYLINE_19_">
		<line class="st0" x1="250.9" y1="83.2" x2="244.5" y2="163.2"/>
	</g>
	<g id="LWPOLYLINE_20_">
		<line class="st0" x1="215.7" y1="80.6" x2="212.6" y2="157.7"/>
	</g>
	<g id="LWPOLYLINE_21_">
		<polyline class="st0" points="266.6,94.3 265.3,104.5 298.2,128.7 300,118.1 		"/>
	</g>
	<g id="LWPOLYLINE_24_">
		<line class="st0" x1="56.7" y1="162" x2="118.6" y2="226.4"/>
	</g>
	<g id="LWPOLYLINE_25_">
		<polyline class="st0" points="72.8,178.7 73.5,193.3 100.8,219.6 100.9,207.9 		"/>
	</g>
	<g id="ARC_4_">
		<path class="st0" d="M250.8,83.1c-10-8.2-24.1-9.3-35.1-2.5"/>
	</g>
	<g id="ARC_5_">
		<path class="st0" d="M319.5,141.5c2-4,0.8-8.9-2.8-11.6"/>
	</g>
	<g id="ARC_6_">
		<path class="st0" d="M68.6,137.1c-5.2,1.7-8.7,6.5-8.6,12"/>
	</g>
	<g id="LWPOLYLINE_35_">
		<polyline class="st0" points="267.5,95 266.3,104 297.5,127 299.1,117.4 		"/>
	</g>
	<g id="LWPOLYLINE_36_">
		<polyline class="st0" points="73.9,179.8 74.4,192.9 99.8,217.3 99.9,206.9 		"/>
	</g>
	<line class="st0" x1="118.6" y1="260.5" x2="59.8" y2="209.3"/>
	<line class="st0" x1="159.2" y1="268.3" x2="315.5" y2="192.8"/>
	<line class="st0" x1="248" y1="127" x2="293.4" y2="153.6"/>
	<line class="st0" x1="314.9" y1="198.5" x2="159.2" y2="273.5"/>
	<line class="st0" x1="118.6" y1="265.3" x2="60.1" y2="215.1"/>
	<line class="st0" x1="213.7" y1="128.7" x2="89.3" y2="178.5"/>
	<line class="st0" x1="214.1" y1="123.2" x2="84.9" y2="174.7"/>
	<line class="st0" x1="247" y1="131.7" x2="288.7" y2="155.8"/>
</g>
</svg>
